<svg width="31" height="30" viewBox="0 0 31 30" fill="none" xmlns="http://www.w3.org/2000/svg">
<g clip-path="url(#clip0)">
<path d="M29.049 14.1211C28.6324 11.7928 26.5939 10.0195 24.1477 10.0195C23.1067 10.0195 22.1005 10.3467 21.2651 10.9399C20.0037 9.26566 18.0268 8.26172 15.886 8.26172C13.7452 8.26172 11.7683 9.26566 10.5069 10.9399C9.67148 10.3467 8.66524 10.0195 7.62427 10.0195C5.17804 10.0195 3.13956 11.7928 2.72302 14.1211H0.885986V15.8521L4.81019 21.7383H26.9618L30.886 15.8521V14.1211H29.049ZM7.62427 11.7773C8.54519 11.7773 9.4245 12.1736 10.0367 12.8645L10.8811 13.8175L11.4728 12.6899C12.3371 11.0428 14.0281 10.0195 15.886 10.0195C17.7439 10.0195 19.4349 11.0428 20.2992 12.69L20.8908 13.8176L21.7353 12.8646C22.3475 12.1736 23.2268 11.7773 24.1477 11.7773C25.62 11.7773 26.8639 12.7701 27.2475 14.1211H4.52442C4.9081 12.7701 6.15198 11.7773 7.62427 11.7773ZM26.0211 19.9805H5.75085L3.01651 15.8789H28.7554L26.0211 19.9805Z" fill="#323232"/>
</g>
<defs>
<clipPath id="clip0">
<rect width="30" height="30" fill="white" transform="translate(0.885986)"/>
</clipPath>
</defs>
</svg>
