<svg width="24" height="24" viewBox="0 0 24 24" fill="none" xmlns="http://www.w3.org/2000/svg">
<path d="M17.21 9.98L12.83 3.42C12.64 3.14 12.32 3 12 3C11.68 3 11.36 3.14 11.17 3.43L6.79 9.98H2C1.45 9.98 1 10.43 1 10.98C1 11.07 1.01 11.16 1.04 11.25L3.58 20.52C3.81 21.36 4.58 21.98 5.5 21.98H18.5C19.42 21.98 20.19 21.36 20.43 20.52L22.97 11.25L23 10.98C23 10.43 22.55 9.98 22 9.98H17.21ZM9 9.98L12 5.58L15 9.98H9ZM12 17.98C10.9 17.98 10 17.08 10 15.98C10 14.88 10.9 13.98 12 13.98C13.1 13.98 14 14.88 14 15.98C14 17.08 13.1 17.98 12 17.98Z" fill="#F08601"/>
</svg>
