<svg width="343" height="65" viewBox="0 0 343 65" fill="none" xmlns="http://www.w3.org/2000/svg">
<mask id="path-1-inside-1" fill="white">
<path fill-rule="evenodd" clip-rule="evenodd" d="M23.2334 0.0437012H319.74V0.0710599L342.92 31.9752L319.74 63.8793V64.0437H23.2334V63.8811L23.2147 63.8871L0.0791016 32.0438L23.2147 0.200393L23.2334 0.206478V0.0437012Z"/>
</mask>
<path d="M319.74 0.0437012H321.74V-1.9563H319.74V0.0437012ZM23.2334 0.0437012V-1.9563H21.2334V0.0437012H23.2334ZM319.74 0.0710599H317.74V0.720899L318.122 1.24663L319.74 0.0710599ZM342.92 31.9752L344.538 33.1507L345.392 31.9752L344.538 30.7996L342.92 31.9752ZM319.74 63.8793L318.122 62.7037L317.74 63.2295V63.8793H319.74ZM319.74 64.0437V66.0437H321.74V64.0437H319.74ZM23.2334 64.0437H21.2334V66.0437H23.2334V64.0437ZM23.2334 63.8811H25.2334V61.1284L22.6154 61.9789L23.2334 63.8811ZM23.2147 63.8871L21.5966 65.0627L22.4507 66.2382L23.8326 65.7893L23.2147 63.8871ZM0.0791016 32.0438L-1.53893 30.8682L-2.39303 32.0438L-1.53893 33.2193L0.0791016 32.0438ZM23.2147 0.200393L23.8327 -1.70172L22.4507 -2.15075L21.5966 -0.975178L23.2147 0.200393ZM23.2334 0.206478L22.6154 2.10859L25.2334 2.95924V0.206478H23.2334ZM319.74 -1.9563H23.2334V2.0437H319.74V-1.9563ZM321.74 0.0710599V0.0437012H317.74V0.0710599H321.74ZM344.538 30.7996L321.358 -1.10451L318.122 1.24663L341.302 33.1507L344.538 30.7996ZM321.358 65.0549L344.538 33.1507L341.302 30.7996L318.122 62.7037L321.358 65.0549ZM321.74 64.0437V63.8793H317.74V64.0437H321.74ZM23.2334 66.0437H319.74V62.0437H23.2334V66.0437ZM21.2334 63.8811V64.0437H25.2334V63.8811H21.2334ZM23.8326 65.7893L23.8514 65.7832L22.6154 61.9789L22.5967 61.985L23.8326 65.7893ZM-1.53893 33.2193L21.5966 65.0627L24.8327 62.7116L1.69714 30.8682L-1.53893 33.2193ZM21.5966 -0.975178L-1.53893 30.8682L1.69714 33.2193L24.8327 1.37596L21.5966 -0.975178ZM23.8514 -1.69563L23.8327 -1.70172L22.5966 2.10251L22.6154 2.10859L23.8514 -1.69563ZM21.2334 0.0437012V0.206478H25.2334V0.0437012H21.2334Z" fill="#C86D37" mask="url(#path-1-inside-1)"/>
<circle cx="23.2239" cy="32.0438" r="2.7757" fill="#BE5B26"/>
<circle cx="320.776" cy="32.0438" r="2.7757" fill="#BE5B26"/>
</svg>
