<svg width="343" height="65" viewBox="0 0 343 65" fill="none" xmlns="http://www.w3.org/2000/svg">
<mask id="path-1-inside-1" fill="white">
<path fill-rule="evenodd" clip-rule="evenodd" d="M23.2344 0.0437012H319.741V0.0710599L342.921 31.9752L319.741 63.8793V64.0437H23.2344V63.8811L23.2156 63.8871L0.0800781 32.0438L23.2156 0.200393L23.2344 0.206478V0.0437012Z"/>
</mask>
<path d="M319.741 0.0437012H321.741V-1.9563H319.741V0.0437012ZM23.2344 0.0437012V-1.9563H21.2344V0.0437012H23.2344ZM319.741 0.0710599H317.741V0.720899L318.123 1.24663L319.741 0.0710599ZM342.921 31.9752L344.539 33.1507L345.393 31.9752L344.539 30.7996L342.921 31.9752ZM319.741 63.8793L318.123 62.7037L317.741 63.2295V63.8793H319.741ZM319.741 64.0437V66.0437H321.741V64.0437H319.741ZM23.2344 64.0437H21.2344V66.0437H23.2344V64.0437ZM23.2344 63.8811H25.2344V61.1284L22.6164 61.9789L23.2344 63.8811ZM23.2156 63.8871L21.5976 65.0627L22.4517 66.2382L23.8336 65.7893L23.2156 63.8871ZM0.0800781 32.0438L-1.53796 30.8682L-2.39206 32.0438L-1.53796 33.2193L0.0800781 32.0438ZM23.2156 0.200393L23.8337 -1.70172L22.4517 -2.15075L21.5976 -0.975178L23.2156 0.200393ZM23.2344 0.206478L22.6163 2.10859L25.2344 2.95924V0.206478H23.2344ZM319.741 -1.9563H23.2344V2.0437H319.741V-1.9563ZM321.741 0.0710599V0.0437012H317.741V0.0710599H321.741ZM344.539 30.7996L321.359 -1.10451L318.123 1.24663L341.303 33.1507L344.539 30.7996ZM321.359 65.0549L344.539 33.1507L341.303 30.7996L318.123 62.7037L321.359 65.0549ZM321.741 64.0437V63.8793H317.741V64.0437H321.741ZM23.2344 66.0437H319.741V62.0437H23.2344V66.0437ZM21.2344 63.8811V64.0437H25.2344V63.8811H21.2344ZM23.8336 65.7893L23.8523 65.7832L22.6164 61.9789L22.5977 61.985L23.8336 65.7893ZM-1.53796 33.2193L21.5976 65.0627L24.8337 62.7116L1.69811 30.8682L-1.53796 33.2193ZM21.5976 -0.975178L-1.53796 30.8682L1.69811 33.2193L24.8337 1.37596L21.5976 -0.975178ZM23.8524 -1.69563L23.8337 -1.70172L22.5976 2.10251L22.6163 2.10859L23.8524 -1.69563ZM21.2344 0.0437012V0.206478H25.2344V0.0437012H21.2344Z" fill="#C86D37" mask="url(#path-1-inside-1)"/>
</svg>
