<svg width="24" height="64" viewBox="0 0 24 64" fill="none" xmlns="http://www.w3.org/2000/svg">
<g clip-path="url(#clip0)">
<rect width="1920" height="5936" transform="translate(-564 -4101)" fill="white"/>
<g filter="url(#filter0_d)">
<rect x="-404" y="-460.487" width="513" height="640" fill="white"/>
</g>
<mask id="path-2-inside-1" fill="white">
<path fill-rule="evenodd" clip-rule="evenodd" d="M-295.766 0.0437012H0.741211V0.0710599L23.9209 31.9752L0.741211 63.8793V64.0437H-295.766V63.8811L-295.784 63.8871L-318.92 32.0438L-295.784 0.200393L-295.766 0.210299V0.0437012Z"/>
</mask>
<path d="M0.741211 0.0437012H2.74121V-1.9563H0.741211V0.0437012ZM-295.766 0.0437012V-1.9563H-297.766V0.0437012H-295.766ZM0.741211 0.0710599H-1.25879V0.720899L-0.876823 1.24663L0.741211 0.0710599ZM23.9209 31.9752L25.5389 33.1507L26.393 31.9752L25.5389 30.7996L23.9209 31.9752ZM0.741211 63.8793L-0.876823 62.7037L-1.25879 63.2295V63.8793H0.741211ZM0.741211 64.0437V66.0437H2.74121V64.0437H0.741211ZM-295.766 64.0437H-297.766V66.0437H-295.766V64.0437ZM-295.766 63.8811H-293.766V61.1284L-296.384 61.9789L-295.766 63.8811ZM-295.784 63.8871L-297.402 65.0627L-296.548 66.2382L-295.166 65.7893L-295.784 63.8871ZM-318.92 32.0438L-320.538 30.8682L-321.392 32.0438L-320.538 33.2193L-318.92 32.0438ZM-295.784 0.200393L-294.849 -1.56755L-296.383 -2.37862L-297.402 -0.975178L-295.784 0.200393ZM-295.766 0.210299L-296.701 1.97824L-293.766 3.53066V0.210299H-295.766ZM0.741211 -1.9563H-295.766V2.0437H0.741211V-1.9563ZM2.74121 0.0710599V0.0437012H-1.25879V0.0710599H2.74121ZM25.5389 30.7996L2.35925 -1.10451L-0.876823 1.24663L22.3029 33.1507L25.5389 30.7996ZM2.35925 65.0549L25.5389 33.1507L22.3029 30.7996L-0.876823 62.7037L2.35925 65.0549ZM2.74121 64.0437V63.8793H-1.25879V64.0437H2.74121ZM-295.766 66.0437H0.741211V62.0437H-295.766V66.0437ZM-297.766 63.8811V64.0437H-293.766V63.8811H-297.766ZM-295.166 65.7893L-295.148 65.7832L-296.384 61.9789L-296.402 61.985L-295.166 65.7893ZM-320.538 33.2193L-297.402 65.0627L-294.166 62.7116L-317.302 30.8682L-320.538 33.2193ZM-297.402 -0.975178L-320.538 30.8682L-317.302 33.2193L-294.166 1.37596L-297.402 -0.975178ZM-294.831 -1.55764L-294.849 -1.56755L-296.719 1.96833L-296.701 1.97824L-294.831 -1.55764ZM-297.766 0.0437012V0.210299H-293.766V0.0437012H-297.766Z" fill="#C86D37" mask="url(#path-2-inside-1)"/>
</g>
<defs>
<filter id="filter0_d" x="-429" y="-485.487" width="573" height="700" filterUnits="userSpaceOnUse" color-interpolation-filters="sRGB">
<feFlood flood-opacity="0" result="BackgroundImageFix"/>
<feColorMatrix in="SourceAlpha" type="matrix" values="0 0 0 0 0 0 0 0 0 0 0 0 0 0 0 0 0 0 127 0"/>
<feOffset dx="5" dy="5"/>
<feGaussianBlur stdDeviation="15"/>
<feColorMatrix type="matrix" values="0 0 0 0 0 0 0 0 0 0 0 0 0 0 0 0 0 0 0.15 0"/>
<feBlend mode="normal" in2="BackgroundImageFix" result="effect1_dropShadow"/>
<feBlend mode="normal" in="SourceGraphic" in2="effect1_dropShadow" result="shape"/>
</filter>
<clipPath id="clip0">
<rect width="1920" height="5936" fill="white" transform="translate(-564 -4101)"/>
</clipPath>
</defs>
</svg>
