<svg width="31" height="30" viewBox="0 0 31 30" fill="none" xmlns="http://www.w3.org/2000/svg">
<g clip-path="url(#clip0)">
<path d="M30.3085 13.8438C30.3085 12.757 29.4989 11.2038 25.642 9.97643C23.7825 9.38471 21.5172 8.97182 19.0511 8.76406C19.1538 8.35239 19.3378 7.95532 19.6038 7.59625C20.8257 5.94692 20.827 3.7313 19.6075 2.0809C19.392 1.78355 18.9773 1.71256 18.6744 1.9233C18.3679 2.13654 18.2925 2.55828 18.5057 2.86476C18.5096 2.87023 18.5134 2.87571 18.5175 2.88112C19.3838 4.05055 19.3837 5.62199 18.5173 6.79143C18.0922 7.36536 17.8152 8.00785 17.6856 8.67123C16.9175 8.63121 16.1345 8.61032 15.3419 8.60971C15.4496 8.25334 15.6192 7.91022 15.8517 7.59625C17.0736 5.94692 17.0749 3.7313 15.8554 2.0809C15.6399 1.78355 15.2252 1.71256 14.9223 1.9233C14.6158 2.13654 14.5404 2.55828 14.7536 2.86476C14.7575 2.87023 14.7613 2.87571 14.7654 2.88112C15.6317 4.05055 15.6316 5.62199 14.7652 6.79143C14.3489 7.35339 14.0746 7.98121 13.9417 8.62992C13.1274 8.65399 12.3269 8.69956 11.5465 8.76568C11.6491 8.35347 11.8333 7.95579 12.0996 7.59625C13.3226 5.94543 13.3227 3.72711 12.0999 2.07623C12.0963 2.07143 12.0921 2.06589 12.0884 2.06122C11.8583 1.76719 11.4336 1.71574 11.1397 1.94588C10.8498 2.17271 10.7955 2.58918 11.0144 2.88267C11.8796 4.05197 11.879 5.62246 11.0131 6.79136C10.5372 7.43371 10.2474 8.16214 10.1418 8.90949C8.22827 9.14044 6.4703 9.50059 4.97492 9.97643C1.11809 11.2037 0.308472 12.757 0.308472 13.8438C0.308472 13.8615 0.308742 13.8794 0.309148 13.8973C0.323616 17.7173 1.88593 21.305 4.713 24.0046C7.54481 26.7088 11.3077 28.198 15.3084 28.198C19.3092 28.198 23.0721 26.7087 25.9039 24.0046C28.7309 21.3049 30.2933 17.7173 30.3077 13.8973C30.3082 13.8794 30.3085 13.8615 30.3085 13.8438ZM5.38497 11.265C6.764 10.8261 8.38418 10.4905 10.1524 10.2697C10.2666 10.9903 10.5534 11.691 11.013 12.3116C11.1457 12.4906 11.3499 12.5853 11.5568 12.5853C11.6966 12.5853 11.8377 12.5421 11.9587 12.4524C12.2587 12.2302 12.3218 11.8067 12.0995 11.5067C11.7879 11.086 11.589 10.6133 11.5016 10.1261C12.271 10.058 13.0625 10.0106 13.8692 9.98481C13.947 10.8048 14.245 11.6096 14.7651 12.3116C14.8978 12.4907 15.102 12.5853 15.3089 12.5853C15.4487 12.5853 15.5898 12.5421 15.7108 12.4525C16.0108 12.2302 16.0739 11.8068 15.8516 11.5068C15.5051 11.039 15.2977 10.507 15.2283 9.96216C15.255 9.96209 15.2817 9.96182 15.3084 9.96182C16.0929 9.96182 16.8669 9.98224 17.625 10.0218C17.7081 10.829 18.005 11.6201 18.5172 12.3116C18.6499 12.4906 18.8541 12.5853 19.061 12.5853C19.2008 12.5853 19.3419 12.5421 19.4629 12.4524C19.7629 12.2302 19.826 11.8067 19.6037 11.5067C19.2901 11.0833 19.0906 10.6072 19.0041 10.1165C21.3421 10.3169 23.4812 10.7079 25.2319 11.2651C27.5292 11.9961 28.9562 12.9842 28.9562 13.8439C28.9562 14.6008 27.8495 15.4572 26.0169 16.1502C23.2411 15.2014 19.3585 14.6593 15.3082 14.6593C11.2583 14.6593 7.37579 15.2014 4.60003 16.1502C2.76742 15.4572 1.66065 14.6007 1.66065 13.8438C1.66065 12.9842 3.08768 11.996 5.38497 11.265ZM23.5952 16.8692C21.211 17.4253 18.3359 17.7258 15.3085 17.7258C12.281 17.7258 9.40582 17.4253 7.02152 16.8692C9.40055 16.3169 12.3 16.0114 15.3083 16.0114C18.3168 16.0114 21.2161 16.317 23.5952 16.8692ZM15.3084 26.8459C8.66712 26.8459 3.11919 22.3029 1.90716 16.3078C2.60914 16.793 3.59766 17.2729 4.97492 17.7112C7.74494 18.5927 11.4148 19.078 15.3085 19.078C19.2023 19.078 22.8721 18.5926 25.6421 17.7112C27.0192 17.2729 28.0077 16.7932 28.7097 16.3079C27.4975 22.3029 21.9497 26.8459 15.3084 26.8459Z" fill="#323232"/>
</g>
<defs>
<clipPath id="clip0">
<rect width="30" height="30" fill="white" transform="translate(0.308472)"/>
</clipPath>
</defs>
</svg>
