<svg width="31" height="30" viewBox="0 0 31 30" fill="none" xmlns="http://www.w3.org/2000/svg">
<g clip-path="url(#clip0)">
<path d="M29.3135 17.9906C29.3153 17.9634 29.3153 17.9361 29.3135 17.909C29.2978 17.8738 29.2789 17.8403 29.2571 17.8086L29.2006 17.7333L18.0382 7.06657C17.9471 6.97771 17.8311 6.91857 17.7056 6.89716C16.7491 6.76367 15.7851 6.69238 14.8193 6.68383C14.451 6.39739 14.0216 6.19982 13.5644 6.10657C13.4578 4.95205 13.5832 2.34184 15.7354 1.18733C16.0404 1.01407 16.1471 0.626383 15.9738 0.32144C15.8006 0.016497 15.4129 -0.0902486 15.108 0.0830072C12.3158 1.59517 12.1338 4.74499 12.1966 6.10029C11.6368 6.22571 11.1236 6.50626 10.7158 6.90971C6.12909 7.59991 2.74083 9.64541 0.902393 12.8454V12.8768V12.9144C0.87102 12.9879 0.854001 13.0668 0.852197 13.1466V24.3529C0.847177 24.6598 1.06483 24.9252 1.36671 24.9804L28.5794 30H28.6923C29.0389 30 29.3198 29.7191 29.3198 29.3726V18.1286C29.3198 18.1286 29.3198 18.1286 29.3198 18.0847C29.32 18.0532 29.3179 18.0218 29.3135 17.9906ZM12.9244 7.25481C13.9225 7.25136 14.7343 8.05756 14.7378 9.0556C14.7412 10.0536 13.935 10.8655 12.937 10.8689C11.9389 10.8724 11.1271 10.0662 11.1236 9.06815C11.1236 9.06603 11.1236 9.064 11.1236 9.06188C11.1236 8.06634 11.9288 7.25826 12.9244 7.25481ZM9.96911 8.30893C9.90456 8.55262 9.87083 8.80352 9.86872 9.0556C9.81915 10.746 11.1492 12.1565 12.8396 12.2061C14.5299 12.2556 15.9404 10.9256 15.99 9.23521C16.0033 8.78337 15.9163 8.33419 15.7354 7.91991C16.4444 7.95756 16.9903 8.0203 17.2413 8.05168L26.7661 17.156L2.55887 12.6886C4.10868 10.4548 6.60595 8.99286 9.96911 8.30893ZM2.12593 23.8259V20.8141L28.0837 25.4886L28.09 28.6196L2.12593 23.8259ZM2.12593 19.5404V17.658L28.0837 22.3325L28.09 24.2274L2.12593 19.5404ZM2.12593 16.3968V13.887L21.3825 17.4447L28.0774 18.6996L28.09 21.0902L2.12593 16.3968Z" fill="#323232"/>
</g>
<defs>
<clipPath id="clip0">
<rect width="30" height="30" fill="white" transform="translate(0.0859375)"/>
</clipPath>
</defs>
</svg>
