<svg width="31" height="31" viewBox="0 0 31 31" fill="none" xmlns="http://www.w3.org/2000/svg">
<g clip-path="url(#clip0)">
<path d="M27.5965 19.5566C27.5993 19.5227 27.6007 19.4889 27.6026 19.455C29.1886 19.1137 30.2862 17.7053 30.2862 16.0833C30.2862 15.1461 29.9198 14.2745 29.2769 13.6267C30.0778 11.8917 29.3269 9.82507 27.5966 9.01004C27.7558 7.10575 26.3432 5.42048 24.4386 5.2464C23.937 3.40293 22.0335 2.3019 20.1838 2.78987C19.0536 1.1888 16.8668 0.869757 15.2402 1.94507C13.6746 0.848254 11.4989 1.21856 10.3896 2.78987C8.54174 2.30243 6.63686 3.401 6.13478 5.2464C4.23172 5.42042 2.8175 7.10405 2.97682 9.00998C1.24825 9.82419 0.494858 11.8899 1.29653 13.6266C0.0776137 14.8549 -0.0526397 16.7958 0.984231 18.1848C1.47407 18.8409 2.18774 19.2857 2.97073 19.4542C2.9726 19.4883 2.97395 19.5224 2.97676 19.5565C1.24819 20.3707 0.4948 22.4365 1.29648 24.1732C0.0770863 25.4019 -0.0526398 27.3433 0.984876 28.7322C1.8179 29.8472 3.27377 30.3313 4.60549 29.9435C11.4472 27.9513 18.8692 27.9209 25.7563 29.8825C26.9976 30.2361 28.3483 29.8369 29.1975 28.8654C29.7218 28.2657 30.2861 27.3103 30.2861 26.6298C30.2861 25.6926 29.9196 24.8209 29.2768 24.1731C30.0777 22.4384 29.3269 20.3716 27.5965 19.5566ZM2.39276 17.1333C1.78849 16.3239 1.97804 15.1404 2.90411 14.5836C3.36166 14.3085 3.46977 13.6919 3.1345 13.2776C2.29292 12.2374 2.84926 10.7143 4.16023 10.459C4.68424 10.357 4.99672 9.81453 4.82334 9.31051C4.3881 8.04535 5.4323 6.80429 6.7513 7.01282C7.2787 7.09614 7.75782 6.69325 7.76725 6.16028C7.79104 4.82259 9.19646 4.01353 10.3649 4.66064C10.8319 4.91933 11.4199 4.70464 11.6111 4.20701C12.0907 2.9585 13.6882 2.67825 14.565 3.68611C14.9154 4.08889 15.5413 4.0883 15.8911 3.68611C16.6764 2.78354 18.4296 2.82028 18.9622 4.20695C19.1537 4.70535 19.7421 4.91892 20.2085 4.66064C21.3789 4.0123 22.7824 4.82505 22.8061 6.16028C22.8156 6.69419 23.2955 7.09596 23.8221 7.01282C25.1434 6.80382 26.1844 8.0477 25.75 9.31051C25.5763 9.81535 25.8899 10.3572 26.4131 10.4591C27.7263 10.7148 28.279 12.2391 27.4389 13.2776C27.1031 13.6927 27.2124 14.3089 27.6692 14.5836C28.2072 14.9071 28.5285 15.4678 28.5285 16.0834C28.5285 16.852 28.0312 17.5578 27.2525 17.7336C27.1294 17.4838 26.9754 17.2461 26.7906 17.0259C26.1882 16.3081 25.3473 15.8761 24.4385 15.793C23.9368 13.9495 22.0334 12.8485 20.1837 13.3365C19.0535 11.7354 16.8667 11.4164 15.2401 12.4917C13.6741 11.3945 11.4985 11.7656 10.3895 13.3365C8.54145 12.849 6.63669 13.9477 6.13466 15.793C4.88445 15.9073 3.84348 16.6723 3.32071 17.7337C2.95502 17.6511 2.62227 17.4407 2.39276 17.1333ZM27.8741 27.7087C27.4705 28.1705 26.8283 28.3603 26.2379 28.1921C22.6537 27.1713 18.9337 26.6697 15.1719 26.6815C11.4124 26.6922 7.69196 27.2142 4.11418 28.2559C3.47985 28.4405 2.78833 28.2093 2.39317 27.6803C1.78714 26.8691 1.97979 25.686 2.90416 25.1301C3.36172 24.855 3.46983 24.2385 3.13455 23.8241C2.73963 23.336 2.62954 22.6993 2.84012 22.1209C3.05059 21.5425 3.54418 21.1255 4.16029 21.0056C4.68429 20.9036 4.99677 20.3611 4.8234 19.857C4.42473 18.6982 5.27123 17.5366 6.46407 17.5366C6.75235 17.5366 7.08657 17.6724 7.45342 17.3645C7.64825 17.201 7.76268 16.9611 7.76719 16.7068C7.79098 15.3692 9.19641 14.56 10.3648 15.2072C10.8319 15.4658 11.4199 15.2512 11.611 14.7536C12.0907 13.505 13.6881 13.2248 14.565 14.2327C14.9154 14.6354 15.5413 14.6348 15.8911 14.2327C16.6762 13.3303 18.4293 13.3664 18.9622 14.7535C19.1537 15.2519 19.7421 15.4655 20.2084 15.2072C21.3788 14.5589 22.7823 15.3715 22.806 16.7068C22.8155 17.2407 23.2955 17.6426 23.822 17.5594C25.1434 17.3505 26.1844 18.5942 25.75 19.857C25.5763 20.3619 25.8898 20.9037 26.4131 21.0056C27.7263 21.2614 28.2789 22.7857 27.4388 23.8241C27.1031 24.2391 27.2124 24.8554 27.6692 25.1301C28.1995 25.449 28.5191 25.9983 28.5282 26.6035C28.4966 26.7529 28.2789 27.2456 27.8741 27.7087Z" fill="#323232"/>
<path d="M23.0785 19.9478C21.2492 17.5159 18.4118 16.0835 15.2865 16.0835C12.1568 16.0835 9.32128 17.5196 7.49457 19.9477C7.20278 20.3356 7.28071 20.8865 7.6686 21.1784C8.05643 21.4701 8.60744 21.3923 8.89923 21.0044C10.3675 19.0524 12.672 17.8179 15.2865 17.8179C17.9012 17.8179 20.2057 19.0526 21.6738 21.0044C21.9658 21.3926 22.517 21.47 22.9044 21.1784C23.2923 20.8867 23.3702 20.3356 23.0785 19.9478Z" fill="#323232"/>
<path d="M23.0785 9.40105C21.2492 6.96918 18.4118 5.53687 15.2865 5.53687C12.1568 5.53687 9.32128 6.97293 7.49457 9.40105C7.20278 9.78894 7.28071 10.3399 7.6686 10.6317C8.05643 10.9234 8.60744 10.8456 8.89923 10.4577C10.3674 8.50574 12.672 7.27112 15.2865 7.27112C17.9061 7.27112 20.2087 8.50984 21.6738 10.4577C21.9657 10.8457 22.5167 10.9234 22.9044 10.6317C23.2923 10.34 23.3702 9.78894 23.0785 9.40105Z" fill="#323232"/>
</g>
<defs>
<clipPath id="clip0">
<rect width="30" height="30" fill="white" transform="translate(0.286133 0.695557)"/>
</clipPath>
</defs>
</svg>
