<?xml version="1.0" encoding="UTF-8"?>
<svg xmlns="http://www.w3.org/2000/svg" xmlns:xlink="http://www.w3.org/1999/xlink" width="61pt" height="61pt" viewBox="0 0 61 61" version="1.1">
<defs>
<clipPath id="clip1">
  <path d="M 0.5625 2 L 59.59375 2 L 59.59375 60 L 0.5625 60 Z M 0.5625 2 "/>
</clipPath>
</defs>
<g id="surface1">
<g clip-path="url(#clip1)" clip-rule="nonzero">
<path style=" stroke:none;fill-rule:nonzero;fill:rgb(19.607843%,19.607843%,19.607843%);fill-opacity:1;" d="M 54.304688 38.480469 C 54.308594 38.414062 54.3125 38.347656 54.316406 38.28125 C 57.4375 37.609375 59.59375 34.839844 59.59375 31.648438 C 59.59375 29.804688 58.875 28.089844 57.609375 26.8125 C 59.183594 23.398438 57.707031 19.332031 54.304688 17.730469 C 54.617188 13.980469 51.835938 10.667969 48.089844 10.324219 C 47.101562 6.695312 43.355469 4.53125 39.714844 5.488281 C 37.492188 2.339844 33.191406 1.710938 29.988281 3.828125 C 26.90625 1.667969 22.625 2.398438 20.445312 5.488281 C 16.808594 4.53125 13.058594 6.691406 12.070312 10.324219 C 8.328125 10.664062 5.542969 13.980469 5.859375 17.730469 C 2.457031 19.332031 0.972656 23.394531 2.550781 26.8125 C 0.152344 29.230469 -0.105469 33.050781 1.9375 35.78125 C 2.902344 37.074219 4.304688 37.949219 5.84375 38.28125 C 5.847656 38.347656 5.851562 38.414062 5.859375 38.480469 C 2.457031 40.085938 0.972656 44.148438 2.550781 47.566406 C 0.152344 49.984375 -0.105469 53.804688 1.9375 56.539062 C 3.578125 58.730469 6.441406 59.683594 9.0625 58.921875 C 22.523438 55 37.128906 54.941406 50.683594 58.800781 C 53.125 59.496094 55.78125 58.710938 57.453125 56.800781 C 58.484375 55.621094 59.59375 53.738281 59.59375 52.402344 C 59.59375 50.554688 58.875 48.839844 57.609375 47.566406 C 59.183594 44.152344 57.707031 40.085938 54.304688 38.480469 Z M 4.707031 33.714844 C 3.519531 32.121094 3.890625 29.792969 5.714844 28.695312 C 6.613281 28.15625 6.828125 26.941406 6.167969 26.125 C 4.511719 24.078125 5.605469 21.082031 8.1875 20.582031 C 9.21875 20.378906 9.832031 19.3125 9.492188 18.320312 C 8.632812 15.832031 10.6875 13.390625 13.285156 13.800781 C 14.324219 13.964844 15.265625 13.171875 15.285156 12.121094 C 15.332031 9.488281 18.097656 7.898438 20.394531 9.171875 C 21.3125 9.679688 22.472656 9.257812 22.847656 8.277344 C 23.792969 5.820312 26.933594 5.269531 28.660156 7.253906 C 29.351562 8.046875 30.582031 8.042969 31.269531 7.253906 C 32.816406 5.476562 36.265625 5.550781 37.3125 8.277344 C 37.691406 9.257812 38.847656 9.679688 39.765625 9.171875 C 42.066406 7.894531 44.828125 9.496094 44.875 12.121094 C 44.894531 13.171875 45.839844 13.964844 46.875 13.800781 C 49.476562 13.386719 51.523438 15.835938 50.667969 18.320312 C 50.328125 19.3125 50.945312 20.378906 51.972656 20.582031 C 54.558594 21.082031 55.644531 24.082031 53.992188 26.125 C 53.332031 26.945312 53.546875 28.15625 54.445312 28.695312 C 55.503906 29.332031 56.136719 30.4375 56.136719 31.648438 C 56.136719 33.160156 55.15625 34.550781 53.625 34.894531 C 53.382812 34.402344 53.082031 33.9375 52.71875 33.503906 C 51.53125 32.089844 49.875 31.238281 48.089844 31.078125 C 47.101562 27.449219 43.355469 25.28125 39.714844 26.242188 C 37.492188 23.09375 33.1875 22.464844 29.988281 24.582031 C 26.90625 22.421875 22.625 23.152344 20.445312 26.242188 C 16.808594 25.285156 13.058594 27.445312 12.070312 31.078125 C 9.613281 31.300781 7.5625 32.808594 6.535156 34.894531 C 5.816406 34.734375 5.160156 34.320312 4.707031 33.714844 Z M 54.847656 54.523438 C 54.054688 55.433594 52.792969 55.804688 51.628906 55.476562 C 44.578125 53.464844 37.257812 52.480469 29.855469 52.503906 C 22.457031 52.523438 15.136719 53.550781 8.09375 55.601562 C 6.847656 55.964844 5.488281 55.507812 4.710938 54.46875 C 3.515625 52.871094 3.894531 50.542969 5.714844 49.449219 C 6.613281 48.910156 6.828125 47.695312 6.167969 46.878906 C 5.390625 45.917969 5.175781 44.667969 5.589844 43.527344 C 6.003906 42.390625 6.972656 41.570312 8.1875 41.332031 C 9.21875 41.132812 9.832031 40.066406 9.492188 39.074219 C 8.707031 36.792969 10.371094 34.507812 12.71875 34.507812 C 13.285156 34.507812 13.945312 34.773438 14.667969 34.167969 C 15.050781 33.847656 15.273438 33.375 15.285156 32.875 C 15.332031 30.242188 18.097656 28.648438 20.394531 29.925781 C 21.3125 30.433594 22.472656 30.011719 22.847656 29.03125 C 23.792969 26.574219 26.933594 26.023438 28.660156 28.007812 C 29.351562 28.796875 30.582031 28.796875 31.269531 28.007812 C 32.816406 26.230469 36.265625 26.300781 37.3125 29.03125 C 37.691406 30.011719 38.847656 30.433594 39.765625 29.925781 C 42.066406 28.648438 44.828125 30.246094 44.875 32.875 C 44.894531 33.925781 45.839844 34.714844 46.875 34.550781 C 49.476562 34.140625 51.523438 36.589844 50.667969 39.074219 C 50.328125 40.066406 50.945312 41.132812 51.972656 41.332031 C 54.558594 41.835938 55.644531 44.835938 53.992188 46.878906 C 53.332031 47.695312 53.546875 48.910156 54.445312 49.449219 C 55.488281 50.078125 56.117188 51.15625 56.136719 52.347656 C 56.074219 52.644531 55.644531 53.613281 54.847656 54.523438 Z M 54.847656 54.523438 "/>
</g>
<path style=" stroke:none;fill-rule:nonzero;fill:rgb(19.607843%,19.607843%,19.607843%);fill-opacity:1;" d="M 45.414062 39.253906 C 41.8125 34.464844 36.230469 31.648438 30.078125 31.648438 C 23.921875 31.648438 18.34375 34.472656 14.746094 39.25 C 14.171875 40.015625 14.328125 41.097656 15.089844 41.671875 C 15.851562 42.246094 16.9375 42.09375 17.511719 41.332031 C 20.402344 37.488281 24.933594 35.0625 30.078125 35.0625 C 35.226562 35.0625 39.757812 37.492188 42.648438 41.332031 C 43.222656 42.09375 44.308594 42.246094 45.070312 41.671875 C 45.832031 41.101562 45.988281 40.015625 45.414062 39.253906 Z M 45.414062 39.253906 "/>
<path style=" stroke:none;fill-rule:nonzero;fill:rgb(19.607843%,19.607843%,19.607843%);fill-opacity:1;" d="M 45.414062 18.5 C 41.8125 13.714844 36.230469 10.894531 30.078125 10.894531 C 23.921875 10.894531 18.34375 13.722656 14.746094 18.5 C 14.171875 19.261719 14.328125 20.347656 15.089844 20.921875 C 15.851562 21.496094 16.9375 21.339844 17.511719 20.578125 C 20.398438 16.738281 24.933594 14.308594 30.078125 14.308594 C 35.234375 14.308594 39.765625 16.746094 42.648438 20.578125 C 43.222656 21.339844 44.308594 21.496094 45.070312 20.921875 C 45.832031 20.347656 45.988281 19.261719 45.414062 18.5 Z M 45.414062 18.5 "/>
</g>
</svg>
