<svg width="31" height="30" viewBox="0 0 31 30" fill="none" xmlns="http://www.w3.org/2000/svg">
<g clip-path="url(#clip0)">
<path d="M30.7202 15.3207C28.2215 10.8479 24.1139 8.11282 19.2994 7.60598C16.8856 4.55733 9.31169 3.785 8.98479 3.75319C8.7718 3.73121 8.55753 3.82397 8.42692 3.99735C8.29567 4.1695 8.26332 4.39772 8.34149 4.59975C9.08405 6.52727 9.84478 8.71968 10.0461 9.61664C8.67073 10.246 7.46855 10.9153 6.69353 11.473C5.01258 8.78372 1.5812 8.75015 1.42434 8.75015C1.07887 8.75015 0.799316 9.0297 0.799316 9.37517C0.799316 12.9964 2.06155 14.8141 2.90566 15.6252C2.06155 16.4363 0.799316 18.254 0.799316 21.8752C0.799316 22.2207 1.07887 22.5002 1.42434 22.5002C1.5812 22.5002 5.01264 22.4667 6.69353 19.7774C7.7232 20.5184 9.50353 21.4554 11.449 22.2344C11.0191 22.9297 10.7994 24.0356 10.7994 25.6252C10.7994 25.9707 11.0789 26.2503 11.4244 26.2503C11.6103 26.2503 15.8605 26.2134 17.9771 23.7306C23.3602 23.6265 27.9954 20.8072 30.7202 15.9297C30.8257 15.7405 30.8257 15.5099 30.7202 15.3207ZM9.87589 5.12224C11.976 5.42622 15.4237 6.17412 17.3721 7.51282C15.5756 7.58301 13.2834 8.26224 11.2055 9.11455C10.9288 8.01591 10.3149 6.29951 9.87589 5.12224ZM12.064 24.9642C12.1473 23.2257 12.5484 22.7814 12.6609 22.6904C13.8788 23.1179 15.1128 23.4577 16.2333 23.6282C14.8775 24.5822 13.0293 24.8791 12.064 24.9642ZM12.5883 22.6675L12.5886 22.6658C12.5903 22.6664 12.592 22.6668 12.5937 22.6675C12.5901 22.667 12.5921 22.668 12.5883 22.6675ZM17.6744 22.5002C14.0221 22.5002 8.05034 19.5016 6.94437 18.37C6.82595 18.2485 6.66423 18.182 6.49759 18.182C6.45974 18.182 6.4213 18.1857 6.38345 18.1924C6.17896 18.2302 6.00622 18.3681 5.92384 18.5592C5.08032 20.5153 3.09667 21.0494 2.06577 21.1953C2.26106 17.2786 4.11475 16.2319 4.20996 16.1812C4.41563 16.0756 4.5426 15.8626 4.54565 15.6313C4.54869 15.3975 4.41744 15.1797 4.21055 15.0698C4.12693 15.0253 2.26229 13.9858 2.06577 10.0588C3.09603 10.2096 5.087 10.7515 5.92384 12.6912C6.00622 12.8823 6.17896 13.0203 6.38345 13.058C6.58976 13.0965 6.79912 13.0293 6.94437 12.8804C8.05034 11.7488 14.0221 8.75015 17.6744 8.75015C22.6092 8.75015 26.8835 11.2508 29.4543 15.6252C26.8835 19.9996 22.6092 22.5002 17.6744 22.5002Z" fill="#323232"/>
<path d="M19.5494 15.6251C19.5494 12.7491 20.6841 10.9876 20.6957 10.9699C20.8849 10.6818 20.8056 10.2948 20.5187 10.1044C20.2318 9.91521 19.8449 9.99273 19.6544 10.2784C19.5989 10.3614 18.2994 12.3487 18.2994 15.6251C18.2994 18.9015 19.5989 20.8888 19.6544 20.9718C19.7747 21.1524 19.9731 21.2501 20.175 21.2501C20.294 21.2501 20.4143 21.216 20.5211 21.1451C20.8086 20.9535 20.8861 20.5659 20.6944 20.2784C20.6829 20.2614 19.5494 18.5274 19.5494 15.6251Z" fill="#323232"/>
<path d="M18.0187 10.1044C17.7312 9.91521 17.3454 9.99273 17.1544 10.2784C17.0989 10.3613 15.7994 12.3487 15.7994 15.625C15.7994 17.3749 16.1766 18.75 16.4934 19.5954C16.5874 19.8462 16.8255 20.0012 17.0788 20.0012C17.1514 20.0012 17.2258 19.9884 17.2979 19.9616C17.6214 19.8407 17.785 19.4806 17.6641 19.1571C17.384 18.4082 17.0495 17.1875 17.0495 15.625C17.0495 12.7491 18.1841 10.9875 18.1957 10.9698C18.3849 10.6818 18.3055 10.2948 18.0187 10.1044Z" fill="#323232"/>
<path d="M23.2994 15C23.9897 15 24.5494 14.4403 24.5494 13.75C24.5494 13.0596 23.9897 12.5 23.2994 12.5C22.609 12.5 22.0494 13.0596 22.0494 13.75C22.0494 14.4403 22.609 15 23.2994 15Z" fill="#323232"/>
</g>
<defs>
<clipPath id="clip0">
<rect width="30" height="30" fill="white" transform="translate(0.799316)"/>
</clipPath>
</defs>
</svg>
