<svg width="31" height="30" viewBox="0 0 31 30" fill="none" xmlns="http://www.w3.org/2000/svg">
<path d="M27.7885 2.99483C27.6483 2.77009 27.4247 2.61029 27.1668 2.55059L24.6284 1.96261L24.645 1.22928C24.6509 0.964632 24.5515 0.708369 24.3686 0.516854C24.1857 0.32544 23.9342 0.214632 23.6694 0.208672L20.3758 0.134531C20.3681 0.134329 20.3605 0.134228 20.3529 0.134228C19.812 0.134228 19.3673 0.56645 19.3552 1.10999L19.3032 3.4115L19.0684 3.34382C18.8892 3.29211 18.7012 3.29342 18.5247 3.34261L18.5755 1.09504C18.5815 0.830389 18.4821 0.574127 18.2991 0.382611C18.1162 0.191197 17.8647 0.0803891 17.5999 0.0744295L14.3063 0.000288114C13.7503 -0.0128432 13.2981 0.424531 13.2857 0.975743L13.1005 9.17554L12.7798 4.49019C12.7619 4.22605 12.6394 3.97978 12.4399 3.80594C12.2404 3.6319 11.9807 3.54403 11.7156 3.56241L9.81993 3.69231V2.77978C9.81993 2.22847 9.37286 1.7814 8.82155 1.7814H5.5271C4.97579 1.7814 4.52872 2.22847 4.52872 2.77978V9.8316H4.03094C3.73923 9.8316 3.46205 9.95928 3.27236 10.1809C3.08276 10.4025 2.99953 10.6961 3.04458 10.9844L5.88943 29.156C5.96549 29.6419 6.38397 29.9999 6.87589 29.9999H23.9452C24.437 29.9999 24.8556 29.6418 24.9317 29.156L27.7765 10.9844C27.8216 10.6961 27.7383 10.4025 27.5487 10.1809C27.359 9.95928 27.0819 9.8316 26.7901 9.8316H26.5033L27.9138 3.74857C27.9738 3.49079 27.9286 3.21958 27.7885 2.99483ZM22.357 4.2911L21.2873 3.98291L21.3286 2.15312L22.6262 2.18231L22.357 4.2911ZM19.5269 5.55382L21.7465 6.19302L20.3544 12.197C19.5455 12.7407 18.6534 13.1461 17.7085 13.3969L19.5269 5.55382ZM14.9959 13.6924L15.2591 2.01908L16.5567 2.04827L16.3696 10.3306L15.5902 13.6924H14.9959ZM10.856 5.62271L11.3413 12.714C10.864 12.4679 10.4087 12.1783 9.98115 11.8467L9.56125 5.7113L10.856 5.62271ZM7.82317 9.8317H6.52549V3.77807H7.82327V4.04766C7.60711 4.24584 7.47963 4.53645 7.50115 4.8517L7.82317 9.8317ZM23.0911 28.0033H7.73013L5.19781 11.8285H7.09589C9.17064 14.2901 12.1734 15.6916 15.4105 15.6916C18.6478 15.6916 21.6504 14.2901 23.7252 11.8285H25.6233L23.0911 28.0033ZM23.1199 9.8317L24.4794 3.97766L25.7434 4.27039L24.4538 9.8317H23.1199Z" fill="#323232"/>
</svg>
