<svg width="20" height="21" viewBox="0 0 20 21" fill="none" xmlns="http://www.w3.org/2000/svg">
<path d="M10.8334 6.78361H9.16675V10.1169H5.83342V11.7836H9.16675V15.1169H10.8334V11.7836H14.1667V10.1169H10.8334V6.78361ZM10.0001 2.61694C5.40008 2.61694 1.66675 6.35028 1.66675 10.9503C1.66675 15.5503 5.40008 19.2836 10.0001 19.2836C14.6001 19.2836 18.3334 15.5503 18.3334 10.9503C18.3334 6.35028 14.6001 2.61694 10.0001 2.61694ZM10.0001 17.6169C6.32508 17.6169 3.33341 14.6253 3.33341 10.9503C3.33341 7.27528 6.32508 4.28361 10.0001 4.28361C13.6751 4.28361 16.6667 7.27528 16.6667 10.9503C16.6667 14.6253 13.6751 17.6169 10.0001 17.6169Z" fill="#323232"/>
</svg>
