<svg width="31" height="31" viewBox="0 0 31 31" fill="none" xmlns="http://www.w3.org/2000/svg">
<path d="M26.101 6.65992C21.8984 4.01368 14.505 6.42879 9.44697 9.30357C3.38627 12.3979 2.02713 15.3774 1.83611 17.1263C1.81248 17.1788 1.79995 17.2357 1.79932 17.2933V21.311C1.79932 23.5777 3.46338 25.1607 5.84697 25.1607C7.61111 25.1607 8.35854 24.7899 9.22385 24.3602C10.0551 23.9235 10.9413 23.6028 11.8582 23.4069C13.1567 23.1178 14.692 23.3563 16.3181 23.6092C18.0291 23.8753 19.7984 24.1504 21.4655 23.8299C26.3672 22.8846 29.3895 20.2237 29.5608 16.7046C29.5641 16.6835 29.5658 16.6622 29.5657 16.6408V12.7578C29.5657 12.75 29.5638 12.743 29.5636 12.7354C29.6517 10.3973 28.3587 8.08148 26.101 6.65992ZM9.82666 10.0374L9.84307 10.0286C13.2715 8.07864 17.7931 6.33165 21.5295 6.33165C23.0918 6.33165 24.5173 6.63747 25.6674 7.3616C27.912 8.77488 29.0892 11.1595 28.6674 13.4371C28.1478 16.2414 25.4667 18.3084 21.312 19.1091C19.7831 19.4036 18.0851 19.1387 16.4426 18.8836C14.7387 18.6187 13.1299 18.3687 11.6806 18.6915C10.6991 18.9005 9.75057 19.2434 8.86104 19.7108C8.02455 20.1258 7.4201 20.4257 5.84674 20.4257C4.27338 20.4257 3.0108 19.5359 2.6965 18.2115C2.23291 16.2542 3.86322 13.0793 9.82666 10.0374ZM28.7442 16.6236C28.6135 19.7557 25.8345 22.1451 21.311 23.0174C19.7834 23.3114 18.0851 23.0469 16.4426 22.7914C14.7382 22.5265 13.1288 22.276 11.6806 22.5993C10.6992 22.8083 9.75065 23.151 8.86104 23.6181C8.02432 24.0336 7.41986 24.3335 5.8465 24.3335C3.91619 24.3335 2.61916 23.1188 2.61916 21.311V19.8425C3.02237 20.3008 3.52023 20.6645 4.07774 20.908C4.63526 21.1516 5.23891 21.2691 5.84627 21.2522C7.61064 21.2522 8.3576 20.8816 9.22268 20.4522C10.054 20.0151 10.9405 19.6941 11.8578 19.4981C13.1562 19.2084 14.6918 19.4475 16.3177 19.7002C18.0286 19.9661 19.7979 20.2414 21.4648 19.9202C24.9687 19.2457 27.5117 17.6987 28.7454 15.5589V16.5959C28.7445 16.6051 28.7438 16.6148 28.7433 16.6236H28.7442Z" fill="#323232"/>
<path d="M5.84684 19.8343C7.28356 19.8343 7.80809 19.5743 8.60239 19.1799C9.53489 18.6927 10.5282 18.3343 11.5555 18.1145C12.0947 17.9989 12.6449 17.9434 13.1961 17.949C14.3154 17.9819 15.4307 18.0991 16.5327 18.2997C17.6219 18.4979 18.7241 18.6141 19.8304 18.6474C20.2899 18.6518 20.7488 18.6123 21.201 18.5292C25.1064 17.7772 27.6177 15.8823 28.0916 13.3299C28.4692 11.2929 27.3957 9.14672 25.3572 7.86389C24.3796 7.24942 23.1001 6.93628 21.5542 6.93628C18.374 6.93628 14.1036 8.28504 10.1401 10.5399L10.0932 10.5657C4.43215 13.4513 2.85551 16.3363 3.2666 18.0736C3.51575 19.1267 4.55332 19.8343 5.84684 19.8343ZM10.4689 11.2974L10.5329 11.2629C14.3879 9.07039 18.5078 7.76133 21.5532 7.76133C22.9431 7.76133 24.0765 8.03122 24.9217 8.56345C26.672 9.66548 27.5994 11.4758 27.2842 13.1758C26.8766 15.3758 24.6032 17.0302 21.0472 17.7148C20.6458 17.7884 20.2383 17.8234 19.8304 17.8195C18.7654 17.7852 17.7043 17.672 16.6557 17.4808C15.5129 17.2731 14.3562 17.1527 13.1954 17.1207C12.5845 17.1152 11.9747 17.1772 11.3772 17.3057C10.2857 17.539 9.23045 17.9196 8.23981 18.4371C7.50012 18.8041 7.09278 19.0061 5.84684 19.0061C4.94004 19.0061 4.22379 18.554 4.06559 17.8807C3.8045 16.7829 4.85801 14.1606 10.4689 11.2974Z" fill="#323232"/>
<path d="M21.8676 11.6756C22.826 11.6756 23.5767 11.1242 23.5767 10.4202C23.5767 9.71616 22.8267 9.16455 21.8676 9.16455C20.9086 9.16455 20.1586 9.71592 20.1586 10.4202C20.1586 11.1245 20.9093 11.6756 21.8676 11.6756ZM21.8676 9.99172C22.4018 9.99172 22.7564 10.2496 22.7564 10.4202C22.7564 10.5908 22.4018 10.8484 21.8676 10.8484C21.3335 10.8484 20.9789 10.5906 20.9789 10.4202C20.9789 10.2498 21.3344 9.99172 21.8676 9.99172Z" fill="#323232"/>
</svg>
