<svg width="31" height="31" viewBox="0 0 31 31" fill="none" xmlns="http://www.w3.org/2000/svg">
<g clip-path="url(#clip0)">
<path d="M30.4238 14.4367C30.0503 13.9426 29.5074 13.6328 28.9063 13.5626L26.9151 10.1137L26.5989 5.27787C26.5629 4.72773 26.2462 4.25353 25.7517 4.0096C25.2572 3.76568 24.6883 3.80283 24.2298 4.10916L20.5674 6.55545C20.3832 6.36994 20.1518 6.23201 19.8921 6.15894C19.4695 6.04017 19.0165 6.11101 18.6472 6.35301C18.4479 6.09848 18.1694 5.9118 17.8424 5.8242L11.4684 4.11625C10.9359 3.97339 10.3851 4.12105 9.99519 4.51093C9.60524 4.90088 9.45771 5.45154 9.60044 5.98422L9.75999 6.57977L6.86891 4.65754C6.40966 4.3522 5.84065 4.31611 5.3467 4.56127C4.85276 4.80625 4.53711 5.28103 4.50231 5.83135L4.29213 9.15585L4.25657 9.14635C3.72401 9.00362 3.17329 9.15122 2.78334 9.54104C2.3934 9.93098 2.24586 10.4816 2.3886 11.0143L3.06776 13.5492C2.38742 13.5678 1.76328 13.8885 1.34779 14.4374C0.914494 15.0098 0.777853 15.7348 0.97297 16.4264C1.77418 19.2665 3.93875 21.7428 7.08032 23.4223C7.14688 24.2595 7.51667 25.0355 8.13155 25.6215C8.77813 26.2378 9.62411 26.5773 10.5136 26.5773H21.26C22.1494 26.5773 22.9954 26.2378 23.642 25.6215C24.2567 25.0357 24.6265 24.2598 24.6932 23.4232C27.8304 21.7462 29.9936 19.2735 30.7975 16.4374C30.9949 15.7411 30.8586 15.012 30.4238 14.4367ZM26.0797 10.4844L27.848 13.5473H24.7929C24.8965 13.464 24.9629 13.3364 24.9629 13.1931C24.9627 12.9422 24.7592 12.7387 24.5082 12.7387C24.2572 12.7387 24.0537 12.9422 24.0537 13.1932C24.0537 13.3365 24.1202 13.464 24.2237 13.5473H23.7409L24.228 11.784C24.359 11.3098 24.2596 10.8174 23.9552 10.433C23.8099 10.2495 23.6263 10.1045 23.4215 10.005L24.0786 8.86698C24.19 8.67409 24.3895 8.55895 24.6122 8.55895C24.835 8.55895 25.0345 8.67409 25.1458 8.86698L26.0785 10.4823L26.0797 10.4844ZM24.7348 4.86502C24.92 4.74127 25.1498 4.72615 25.3496 4.82482C25.5493 4.92338 25.6772 5.11486 25.6918 5.33711L25.8881 8.34039C25.6057 7.90662 25.135 7.64987 24.6121 7.64987C24.0606 7.64987 23.5669 7.93493 23.2912 8.41247L22.4402 9.88639C22.4182 9.89114 22.3962 9.89594 22.3744 9.90163L21.1834 10.2109L21.0047 7.52699C21.0012 7.47379 20.9943 7.42129 20.9855 7.36926L24.7348 4.86502ZM20.8856 11.2274L20.8884 11.2267L22.6031 10.7814C22.6475 10.7699 22.6936 10.7631 22.7396 10.7613C22.9314 10.755 23.1196 10.8422 23.2425 10.9974C23.3144 11.0882 23.4242 11.2797 23.3518 11.5419L22.7978 13.5473H21.9445C22.048 13.464 22.1143 13.3365 22.1143 13.1933C22.1143 12.9422 21.9108 12.7387 21.6598 12.7387C21.4088 12.7387 21.2053 12.9422 21.2053 13.1933C21.2053 13.3365 21.2717 13.4641 21.3753 13.5474H17.4145C17.4086 13.2967 17.3402 13.0481 17.2094 12.8215L16.8883 12.2654L20.8856 11.2274ZM18.7244 7.39475L18.7269 7.39305L19.14 7.11637C19.2925 7.01424 19.4721 6.985 19.6459 7.03387C19.8229 7.08367 19.9674 7.20526 20.0422 7.36756C20.0739 7.43617 20.0925 7.51012 20.0976 7.58729L20.2878 10.4434L16.4167 11.4487L15.3722 9.63954L18.7244 7.39475ZM16.5051 13.5473H8.67302C8.67782 13.4645 8.70056 13.3722 8.75604 13.2759L12.0555 7.56115C12.1668 7.36821 12.3663 7.25307 12.5891 7.25307C12.8118 7.25307 13.0113 7.36821 13.1227 7.56115L16.4221 13.2759C16.4776 13.3721 16.5003 13.4645 16.5051 13.5473ZM10.638 5.15371C10.7955 4.99615 11.0179 4.93668 11.2331 4.99427L17.607 6.70217C17.7169 6.73158 17.8115 6.78684 17.8861 6.86213L14.9168 8.85069L13.9099 7.10676C13.6342 6.62922 13.1404 6.3441 12.589 6.3441C12.0376 6.3441 11.5438 6.62916 11.2681 7.10676L11.0697 7.45053L10.9051 7.34108L10.4785 5.74896C10.4208 5.53369 10.4805 5.31115 10.638 5.15371ZM5.40946 5.88871C5.42352 5.6664 5.55102 5.47463 5.75059 5.37566C5.9501 5.27664 6.17997 5.29111 6.36548 5.41463L10.6142 8.23932L9.30888 10.5002L5.18762 9.39596L5.40946 5.88871ZM3.42612 10.1838C3.58362 10.0263 3.8061 9.96678 4.02131 10.0244L4.58985 10.1767L4.59284 10.1775L8.83849 11.3151L7.96884 12.8214C7.83806 13.0479 7.76962 13.2966 7.7637 13.5473H4.00842L3.26662 10.779C3.20897 10.5638 3.26862 10.3413 3.42612 10.1838ZM29.9229 16.1895C29.1844 18.7951 27.1667 21.0781 24.232 22.6379H11.6437C11.3927 22.6379 11.1892 22.8414 11.1892 23.0925C11.1892 23.3435 11.3927 23.547 11.6437 23.547H23.7622C23.5666 24.7414 22.5041 25.6681 21.2601 25.6681H10.5136C9.26944 25.6681 8.2069 24.7413 8.01149 23.547H9.82568C10.0767 23.547 10.2802 23.3435 10.2802 23.0925C10.2802 22.8414 10.0767 22.6379 9.82568 22.6379H7.54304C4.60338 21.0758 2.58412 18.789 1.84795 16.1796C1.73088 15.7644 1.81274 15.3294 2.07266 14.986C2.32742 14.6494 2.7128 14.4564 3.1301 14.4564H3.65797L3.65944 14.4565L3.66125 14.4564H8.3027H8.30798H16.8717L16.874 14.4565L16.8757 14.4564H23.1421L23.1439 14.4565L23.1453 14.4564H28.6346H28.6365H28.6437C29.0603 14.4564 29.4448 14.649 29.6986 14.9849C29.9601 15.3308 30.0419 15.7698 29.9229 16.1895Z" fill="#323232"/>
<path d="M21.9627 9.3143C22.2137 9.3143 22.4172 9.11081 22.4172 8.85979C22.4172 8.60876 22.2137 8.40527 21.9627 8.40527C21.7117 8.40527 21.5082 8.60876 21.5082 8.85979C21.5082 9.11081 21.7117 9.3143 21.9627 9.3143Z" fill="#323232"/>
<path d="M11.2359 6.31454C11.4869 6.31454 11.6904 6.11105 11.6904 5.86003C11.6904 5.60901 11.4869 5.40552 11.2359 5.40552C10.9849 5.40552 10.7814 5.60901 10.7814 5.86003C10.7814 6.11105 10.9849 6.31454 11.2359 6.31454Z" fill="#323232"/>
<path d="M17.7205 9.587C17.9716 9.587 18.175 9.38351 18.175 9.13249C18.175 8.88147 17.9716 8.67798 17.7205 8.67798C17.4695 8.67798 17.266 8.88147 17.266 9.13249C17.266 9.38351 17.4695 9.587 17.7205 9.587Z" fill="#323232"/>
<path d="M6.38097 7.59433C6.63199 7.59433 6.83548 7.39084 6.83548 7.13982C6.83548 6.88879 6.63199 6.6853 6.38097 6.6853C6.12995 6.6853 5.92646 6.88879 5.92646 7.13982C5.92646 7.39084 6.12995 7.59433 6.38097 7.59433Z" fill="#323232"/>
<path d="M6.20584 11.8292C6.45686 11.8292 6.66035 11.6257 6.66035 11.3747C6.66035 11.1237 6.45686 10.9202 6.20584 10.9202C5.95482 10.9202 5.75133 11.1237 5.75133 11.3747C5.75133 11.6257 5.95482 11.8292 6.20584 11.8292Z" fill="#323232"/>
<path d="M25.902 12.6778C26.153 12.6778 26.3565 12.4743 26.3565 12.2233C26.3565 11.9723 26.153 11.7688 25.902 11.7688C25.6509 11.7688 25.4475 11.9723 25.4475 12.2233C25.4475 12.4743 25.6509 12.6778 25.902 12.6778Z" fill="#323232"/>
<path d="M11.0541 12.0719C11.3051 12.0719 11.5086 11.8684 11.5086 11.6174C11.5086 11.3663 11.3051 11.1628 11.0541 11.1628C10.8031 11.1628 10.5996 11.3663 10.5996 11.6174C10.5996 11.8684 10.8031 12.0719 11.0541 12.0719Z" fill="#323232"/>
<path d="M14.6903 13.2838C14.9413 13.2838 15.1448 13.0803 15.1448 12.8293C15.1448 12.5782 14.9413 12.3748 14.6903 12.3748C14.4393 12.3748 14.2358 12.5782 14.2358 12.8293C14.2358 13.0803 14.4393 13.2838 14.6903 13.2838Z" fill="#323232"/>
</g>
<defs>
<clipPath id="clip0">
<rect width="30" height="30" fill="white" transform="translate(0.885986 0.213379)"/>
</clipPath>
</defs>
</svg>
