<svg width="31" height="31" viewBox="0 0 31 31" fill="none" xmlns="http://www.w3.org/2000/svg">
<g clip-path="url(#clip0)">
<path d="M30.0071 22.2406H27.7823L28.7679 21.2551C29.7961 20.2272 29.7961 18.5543 28.7679 17.5261L26.282 15.0402C25.2518 14.0098 23.5837 14.0096 22.5531 15.0402L21.7808 15.8127L21.0086 15.0405C19.9782 14.0098 18.3101 14.0098 17.2796 15.0405L16.5074 15.8127L15.7352 15.0405C14.7047 14.01 13.0366 14.0098 12.0062 15.0405L11.2337 15.8127L10.4615 15.0405C9.43129 14.01 7.7632 14.0098 6.73254 15.0405C5.74263 16.0306 3.91272 17.8605 3.00383 18.7694C2.04893 19.7241 1.98508 21.2139 2.77815 22.2409H1.76489C1.27943 22.2409 0.885986 22.6343 0.885986 23.1198C0.885986 25.5489 2.90953 27.5143 5.33911 27.5143H26.4329C28.862 27.5143 30.886 25.5493 30.886 23.1198C30.886 22.6341 30.4925 22.2406 30.0071 22.2406ZM25.0392 16.2833L27.5251 18.7692C27.8677 19.112 27.8677 19.6696 27.5251 20.0122L26.9037 20.6337L26.282 20.0122C25.9389 19.6689 25.3823 19.6689 25.0392 20.0122C24.6959 20.3553 24.6959 20.912 25.0392 21.2551L25.6606 21.8765L25.2967 22.2406H21.0528L20.0672 21.2551C19.7236 20.9115 19.7236 20.3558 20.0672 20.012L20.6886 19.3906L21.3103 20.0122C21.6534 20.3553 22.21 20.3553 22.5531 20.0122C22.8964 19.6689 22.8964 19.1125 22.5531 18.7692L21.9317 18.1478L23.7961 16.2833C24.1395 15.9397 24.6956 15.9397 25.0392 16.2833ZM19.7658 16.2833L20.538 17.0555C20.1242 17.4694 19.2325 18.3613 18.8244 18.7692C17.8697 19.7238 17.8056 21.2136 18.5987 22.2406H15.7793L14.7938 21.2553C14.4502 20.9117 14.4502 20.3558 14.7938 20.0122L15.4152 19.3908L16.0368 20.0122C16.3799 20.3556 16.9366 20.3556 17.2796 20.0122C17.623 19.6691 17.623 19.1125 17.2796 18.7694L16.6582 18.148L18.5227 16.2835C18.8663 15.9397 19.4222 15.9397 19.7658 16.2833ZM14.4923 16.2833L15.2646 17.0555C14.8508 17.4694 13.959 18.3613 13.5509 18.7692C12.596 19.7238 12.5324 21.2136 13.3255 22.2406H10.5059L9.52032 21.2553C9.17677 20.9117 9.17677 20.3558 9.52032 20.0122L10.1417 19.3908L10.7634 20.0122C11.1065 20.3556 11.6631 20.3556 12.0062 20.0122C12.3495 19.6691 12.3495 19.1125 12.0062 18.7694L11.3848 18.148L13.2493 16.2835C13.5928 15.9397 14.1488 15.9397 14.4923 16.2833ZM4.24689 21.2551C3.90334 20.9115 3.90334 20.3558 4.24689 20.0122L4.86853 19.3908L5.48994 20.0122C5.83304 20.3553 6.38968 20.3556 6.73277 20.0122C7.0761 19.6689 7.0761 19.1125 6.73277 18.7692L6.11136 18.1478L7.97583 16.2833C8.31938 15.9397 8.87534 15.9397 9.21889 16.2833L9.99113 17.0555C9.57732 17.4694 8.68559 18.3611 8.2775 18.7692C7.3226 19.7238 7.25897 21.2136 8.05205 22.2406H5.23245L4.24689 21.2551ZM26.4329 25.7563H5.33911C4.19127 25.7563 3.1835 25.0106 2.80402 23.998H28.968C28.5885 25.0106 27.5807 25.7563 26.4329 25.7563Z" fill="#323232"/>
<path d="M12.0229 8.0931C12.857 7.53714 13.355 6.59552 13.355 5.57471C13.355 4.5539 12.857 3.61251 12.0229 3.05632C11.6189 2.78716 11.0733 2.89634 10.8041 3.30008C10.5347 3.70406 10.6439 4.24971 11.0479 4.51888C11.3969 4.75165 11.5972 5.13663 11.5972 5.57471C11.5972 6.01302 11.3969 6.39777 11.0479 6.63054C10.2136 7.18673 9.71556 8.11713 9.71556 9.11963C9.71556 10.1221 10.2136 11.0528 11.0479 11.6087C11.4509 11.8774 11.9968 11.7696 12.2667 11.365C12.5358 10.9612 12.4267 10.4156 12.0229 10.1462C11.6736 9.91339 11.4734 9.5394 11.4734 9.11963C11.4734 8.70009 11.6736 8.32587 12.0229 8.0931Z" fill="#323232"/>
<path d="M16.4174 8.0931C17.2515 7.53714 17.7495 6.59552 17.7495 5.57471C17.7495 4.5539 17.2515 3.61251 16.4174 3.05632C16.0135 2.78716 15.4678 2.89634 15.1987 3.30008C14.9293 3.70406 15.0384 4.24971 15.4424 4.51888C15.7915 4.75165 15.9917 5.13663 15.9917 5.57471C15.9917 6.01302 15.7915 6.39777 15.4424 6.63054C14.6081 7.18673 14.1101 8.11713 14.1101 9.11963C14.1101 10.1221 14.6081 11.0528 15.4424 11.6087C15.8455 11.8774 16.3914 11.7696 16.6612 11.365C16.9304 10.9612 16.8212 10.4156 16.4174 10.1462C16.0682 9.91339 15.8679 9.5394 15.8679 9.11963C15.8679 8.70009 16.0682 8.32587 16.4174 8.0931Z" fill="#323232"/>
<path d="M20.812 8.0931C21.646 7.53714 22.1441 6.59552 22.1441 5.57471C22.1441 4.5539 21.646 3.61251 20.812 3.05632C20.408 2.78716 19.8624 2.89634 19.5932 3.30008C19.3238 3.70406 19.433 4.24971 19.8369 4.51888C20.186 4.75165 20.3863 5.13663 20.3863 5.57471C20.3863 6.01302 20.186 6.39777 19.8369 6.63054C19.0027 7.18673 18.5046 8.11713 18.5046 9.11963C18.5046 10.1221 19.0027 11.0528 19.8369 11.6087C20.24 11.8774 20.7859 11.7696 21.0557 11.365C21.3249 10.9612 21.2157 10.4156 20.812 10.1462C20.4627 9.91339 20.2624 9.5394 20.2624 9.11963C20.2624 8.70009 20.4627 8.32587 20.812 8.0931Z" fill="#323232"/>
</g>
<defs>
<clipPath id="clip0">
<rect width="30" height="30" fill="white" transform="translate(0.885986 0.213379)"/>
</clipPath>
</defs>
</svg>
