<svg width="31" height="30" viewBox="0 0 31 30" fill="none" xmlns="http://www.w3.org/2000/svg">
<g clip-path="url(#clip0)">
<path d="M17.4362 11.3086C14.7258 11.3086 12.5208 13.5166 12.5208 16.2305C12.5208 18.9444 14.7258 21.1523 17.4362 21.1523C20.1466 21.1523 22.3516 18.9444 22.3516 16.2305C22.3516 13.5166 20.1466 11.3086 17.4362 11.3086ZM17.4362 19.3945C15.6938 19.3945 14.2763 17.9751 14.2763 16.2305C14.2763 14.4858 15.6938 13.0664 17.4362 13.0664C19.1786 13.0664 20.5961 14.4858 20.5961 16.2305C20.5961 17.9751 19.1786 19.3945 17.4362 19.3945Z" fill="#323232"/>
<path d="M24.743 7.4707C25.2277 7.4707 25.6207 7.0772 25.6207 6.5918C25.6207 6.10639 25.2277 5.71289 24.743 5.71289C24.2582 5.71289 23.8652 6.10639 23.8652 6.5918C23.8652 7.0772 24.2582 7.4707 24.743 7.4707Z" fill="#323232"/>
<path d="M9.82112 5.71289C10.3059 5.71289 10.6989 5.31939 10.6989 4.83398C10.6989 4.34858 10.3059 3.95508 9.82112 3.95508C9.33636 3.95508 8.94339 4.34858 8.94339 4.83398C8.94339 5.31939 9.33636 5.71289 9.82112 5.71289Z" fill="#323232"/>
<path d="M6.31017 7.4707C6.79493 7.4707 7.1879 7.0772 7.1879 6.5918C7.1879 6.10639 6.79493 5.71289 6.31017 5.71289C5.82541 5.71289 5.43243 6.10639 5.43243 6.5918C5.43243 7.0772 5.82541 7.4707 6.31017 7.4707Z" fill="#323232"/>
<path d="M15.0879 0C-0.467892 0 -2.99645 7.72494 3.25146 11.9366C3.51795 12.1162 3.67709 12.4195 3.67709 12.7479C3.67709 16.4272 3.67633 16.0093 3.67861 16.0757C2.18658 18.1228 2.139 20.778 3.67709 23.1007V26.7773C3.67709 28.5543 5.1209 30 6.89552 30H23.2803C25.055 30 26.4988 28.5543 26.4988 26.7773C26.4988 19.7436 26.506 20.2318 26.483 20.1098C27.4275 17.6215 27.3726 14.8438 26.2959 12.3319C33.2918 8.22047 31.1818 0 15.0879 0V0ZM24.9457 13.7154C26.41 18.1115 24.1753 22.8321 19.9642 24.2384C18.2918 24.797 16.8173 24.6707 15.3914 24.5489C13.6834 24.4028 13.4727 24.4333 12.2002 24.5501C10.4148 24.714 9.00472 24.8435 7.35086 24.0847C5.27799 23.1336 3.15988 20.0413 5.00939 17.2369C5.51424 16.4713 6.66713 15.5008 7.50097 14.9024C10.9785 12.4067 10.4374 9.70125 14.6532 8.29336C18.8643 6.88699 23.4815 9.31939 24.9457 13.7154ZM24.7432 26.7773C24.7432 27.5851 24.087 28.2422 23.2803 28.2422H6.89552C6.08886 28.2422 5.43261 27.5851 5.43261 26.7773V24.9702C7.84961 26.7841 10.6364 26.4587 12.3604 26.3005C13.5316 26.1929 13.6582 26.1647 15.242 26.3003C19.0322 26.6246 22.1711 26.0638 24.7432 23.0544V26.7773ZM25.4689 10.7785C23.0378 7.01813 18.3979 5.18988 14.0978 6.62578C9.29687 8.22908 9.49767 11.3069 6.47828 13.4735C6.279 13.6165 5.88414 13.9083 5.43256 14.2864V12.7479C5.43256 11.8336 4.98367 10.9852 4.23174 10.4784C-1.21174 6.80894 2.89135 1.75781 15.0879 1.75781C27.8164 1.75781 31.512 7.16115 25.4689 10.7785Z" fill="#323232"/>
</g>
<defs>
<clipPath id="clip0">
<rect width="30" height="30" fill="white" transform="translate(0.0859375)"/>
</clipPath>
</defs>
</svg>
