<svg width="30" height="30" viewBox="0 0 30 30" fill="none" xmlns="http://www.w3.org/2000/svg">
<g clip-path="url(#clip0)">
<path d="M9.71039 20.6449C9.71039 21.437 10.354 22.0814 11.145 22.0814C11.9361 22.0814 12.5796 21.437 12.5796 20.6449C12.5796 19.8527 11.9361 19.2083 11.145 19.2083C10.354 19.2083 9.71039 19.8527 9.71039 20.6449ZM11.7021 20.6449C11.7021 20.9531 11.4522 21.2038 11.1451 21.2038C10.8379 21.2038 10.588 20.9531 10.588 20.6449C10.588 20.3366 10.8379 20.0859 11.1451 20.0859C11.4522 20.0859 11.7021 20.3366 11.7021 20.6449ZM10.7297 9.39025C9.93868 9.39025 9.29511 10.0347 9.29511 10.8268C9.29511 11.6189 9.93868 12.2634 10.7297 12.2634C11.5208 12.2634 12.1644 11.6189 12.1644 10.8268C12.1644 10.0347 11.5208 9.39025 10.7297 9.39025ZM10.7297 11.3858C10.4226 11.3858 10.1727 11.1351 10.1727 10.8269C10.1727 10.5187 10.4226 10.2679 10.7297 10.2679C11.0369 10.2679 11.2868 10.5187 11.2868 10.8269C11.2868 11.1351 11.0369 11.3858 10.7297 11.3858ZM10.2436 17.9447C11.0347 17.9447 11.6782 17.3002 11.6782 16.5081C11.6782 15.716 11.0347 15.0716 10.2436 15.0716C9.45255 15.0716 8.80898 15.716 8.80898 16.5081C8.80898 17.3002 9.45255 17.9447 10.2436 17.9447ZM10.2436 15.9491C10.5508 15.9491 10.8006 16.1999 10.8006 16.5081C10.8006 16.8163 10.5508 17.0671 10.2436 17.0671C9.93645 17.0671 9.68657 16.8163 9.68657 16.5081C9.68657 16.1999 9.93645 15.9491 10.2436 15.9491ZM23.5219 20.8297C24.313 20.8297 24.9565 20.1853 24.9565 19.3932C24.9565 18.6011 24.313 17.9566 23.5219 17.9566C22.7308 17.9566 22.0873 18.6011 22.0873 19.3932C22.0873 20.1853 22.7308 20.8297 23.5219 20.8297ZM23.5219 18.8342C23.829 18.8342 24.0789 19.085 24.0789 19.3932C24.0789 19.7014 23.829 19.9521 23.5219 19.9521C23.2147 19.9521 22.9649 19.7014 22.9649 19.3932C22.9649 19.085 23.2147 18.8342 23.5219 18.8342ZM17.7859 19.2304C17.7859 20.0225 18.4295 20.667 19.2205 20.667C20.0116 20.667 20.6551 20.0225 20.6551 19.2304C20.6551 18.4383 20.0116 17.7938 19.2205 17.7938C18.4295 17.7938 17.7859 18.4383 17.7859 19.2304ZM19.7776 19.2304C19.7776 19.5386 19.5277 19.7894 19.2205 19.7894C18.9134 19.7894 18.6635 19.5386 18.6635 19.2304C18.6635 18.9222 18.9134 18.6714 19.2205 18.6714C19.5277 18.6714 19.7776 18.9222 19.7776 19.2304ZM27.468 13.0303C27.2979 9.51288 25.7957 6.23267 23.238 3.79395C20.6721 1.3474 17.3037 0 13.7533 0C10.086 0 6.63799 1.42509 4.04459 4.01277C1.45083 6.60073 0.0223999 10.0417 0.0223999 13.7016C0.0223999 17.2449 1.37331 20.6065 3.8263 23.1672C6.27092 25.7191 9.55862 27.2176 13.0837 27.3866C13.6728 27.4149 14.1951 26.9182 14.1921 26.325V14.1404H26.4077C27 14.1431 27.4967 13.6236 27.468 13.0303ZM4.66446 4.63398C6.98844 2.31515 10.0458 0.994489 13.3145 0.885784V2.65168C7.47662 2.8788 2.90717 7.57527 2.68022 13.2628H0.908243C1.01742 10.0022 2.34088 6.95241 4.66446 4.63398ZM6.57317 9.09631C6.57317 9.80857 5.99518 10.3881 5.28474 10.3881C4.89433 10.3881 4.52615 10.2082 4.28341 9.90826C4.5846 9.16237 4.97138 8.45977 5.43235 7.81315C6.07352 7.88681 6.57317 8.43408 6.57317 9.09631ZM13.3145 26.325C13.31 26.446 13.2439 26.5157 13.1257 26.5101C9.82605 26.3519 6.74851 24.9491 4.45998 22.5601C2.26582 20.2696 1.01472 17.2943 0.908243 14.1404H2.68016C2.89348 19.8176 7.50529 24.5356 13.3145 24.7519V26.325ZM4.41604 17.8077C4.69851 17.5948 5.0396 17.4799 5.40053 17.4799C6.30831 17.4799 7.04683 18.2202 7.04683 19.1302C7.04683 19.7261 6.72359 20.2712 6.21955 20.5618C5.47834 19.7524 4.86654 18.8233 4.41604 17.8077ZM13.3145 23.8728C10.8291 23.7674 8.57121 22.7711 6.85388 21.1963C7.51225 20.7299 7.92443 19.9624 7.92443 19.1302C7.92443 17.7363 6.79221 16.6023 5.40053 16.6023C4.92832 16.6023 4.47864 16.7306 4.08782 16.9704C3.78312 16.0761 3.60052 15.1261 3.5584 14.1404H13.3145V23.8728ZM14.1921 13.2628V8.15062C14.1921 7.90828 13.9956 7.71182 13.7533 7.71182C13.511 7.71182 13.3145 7.90828 13.3145 8.15062V13.2628H3.5584C3.59456 12.4166 3.73474 11.5969 3.96642 10.8159C4.33951 11.1024 4.80189 11.2657 5.28474 11.2657C6.47909 11.2657 7.45076 10.2925 7.45076 9.09631C7.45076 8.16092 6.85657 7.36195 6.02637 7.05801C7.80993 4.9959 10.4067 3.65325 13.3145 3.52986V6.1029C13.3145 6.34523 13.511 6.5417 13.7533 6.5417C13.9956 6.5417 14.1921 6.34523 14.1921 6.1029V3.52986C15.1095 3.56876 15.9959 3.72889 16.8357 3.99492C16.5981 4.33531 16.4656 4.74421 16.4656 5.17376C16.4656 6.30984 17.3885 7.23412 18.5228 7.23412C19.3609 7.23412 20.0909 6.71979 20.4092 5.98987C22.4773 7.76922 23.8241 10.3607 23.9481 13.2628L14.1921 13.2628ZM17.3432 5.17376C17.3432 4.84548 17.4776 4.53798 17.7105 4.31659C18.4088 4.61082 19.0676 4.98052 19.6768 5.41533C19.5644 5.95067 19.0862 6.35658 18.5228 6.35658C17.8724 6.35652 17.3432 5.82599 17.3432 5.17376ZM14.1921 2.65162V0.885843C17.3538 0.991797 20.3364 2.23997 22.6324 4.42915C25.0262 6.71166 26.4322 9.7813 26.5914 13.0727C26.5972 13.1922 26.5275 13.2582 26.4076 13.2628H24.8272C24.5984 7.43509 19.8797 2.86979 14.1921 2.65162ZM29.1029 15.8669H23.9592C23.7168 15.8669 23.5204 16.0634 23.5204 16.3057C23.5204 16.5481 23.7168 16.7445 23.9592 16.7445H26.4538C26.3284 19.6801 24.9521 22.2977 22.8439 24.0793C22.5142 23.1589 21.6342 22.4982 20.6037 22.4982C19.2916 22.4982 18.2242 23.5673 18.2242 24.8815C18.2242 25.3595 18.3705 25.8229 18.632 26.2125C18.0057 26.3621 17.3573 26.4539 16.6926 26.4821V16.9294C16.6926 16.8274 16.775 16.7445 16.8762 16.7445H21.9114C22.1537 16.7445 22.3502 16.5481 22.3502 16.3057C22.3502 16.0634 22.1537 15.8669 21.9114 15.8669H16.8762C16.2911 15.8669 15.815 16.3435 15.815 16.9294V29.1245C15.8122 29.6081 16.2303 30.0155 16.715 29.9995C20.2049 29.8846 23.489 28.4625 25.9621 25.9951C28.4354 23.5276 29.8613 20.2507 29.9771 16.768C29.9933 16.2813 29.5867 15.8648 29.1029 15.8669ZM20.6037 23.3758C21.3562 23.3758 21.9817 23.9344 22.0891 24.6596C21.3125 25.2012 20.4576 25.6382 19.5445 25.9491C19.2609 25.6681 19.1018 25.2893 19.1018 24.8814C19.1018 24.0513 19.7756 23.3758 20.6037 23.3758ZM25.3423 25.3739C23.0288 27.6819 19.9572 29.0129 16.6927 29.1222V27.3603C22.343 27.1537 27.1139 22.5469 27.332 16.7445H29.0998C28.9901 20.0013 27.6558 23.0659 25.3423 25.3739ZM19.2136 10.9565C19.2136 11.7486 19.8571 12.3931 20.6482 12.3931C21.4392 12.3931 22.0828 11.7486 22.0828 10.9565C22.0828 10.1644 21.4392 9.51996 20.6482 9.51996C19.8571 9.51996 19.2136 10.1644 19.2136 10.9565ZM21.2053 10.9565C21.2053 11.2647 20.9554 11.5155 20.6482 11.5155C20.3411 11.5155 20.0912 11.2647 20.0912 10.9565C20.0912 10.6483 20.3411 10.3975 20.6482 10.3975C20.9554 10.3975 21.2053 10.6483 21.2053 10.9565ZM10.7297 5.11526C9.93868 5.11526 9.29511 5.7597 9.29511 6.55182C9.29511 7.34393 9.93868 7.98838 10.7297 7.98838C11.5208 7.98838 12.1644 7.34393 12.1644 6.55182C12.1644 5.7597 11.5208 5.11526 10.7297 5.11526ZM10.7297 7.11079C10.4226 7.11079 10.1727 6.86003 10.1727 6.55182C10.1727 6.24361 10.4226 5.99285 10.7297 5.99285C11.0369 5.99285 11.2868 6.24361 11.2868 6.55182C11.2868 6.86003 11.0369 7.11079 10.7297 7.11079ZM16.4253 9.39025C15.6343 9.39025 14.9907 10.0347 14.9907 10.8268C14.9907 11.6189 15.6343 12.2634 16.4253 12.2634C17.2164 12.2634 17.86 11.6189 17.86 10.8268C17.86 10.0347 17.2164 9.39025 16.4253 9.39025ZM16.4253 11.3858C16.1182 11.3858 15.8683 11.1351 15.8683 10.8269C15.8683 10.5187 16.1182 10.2679 16.4253 10.2679C16.7325 10.2679 16.9824 10.5187 16.9824 10.8269C16.9824 11.1351 16.7325 11.3858 16.4253 11.3858Z" fill="#323232"/>
</g>
<defs>
<clipPath id="clip0">
<rect width="30" height="30" fill="white"/>
</clipPath>
</defs>
</svg>
