<svg width="31" height="30" viewBox="0 0 31 30" fill="none" xmlns="http://www.w3.org/2000/svg">
<g clip-path="url(#clip0)">
<path d="M12.5248 14.0269H14.2848V15.7869H12.5248V14.0269Z" fill="#323232"/>
<path d="M19.475 15.8154H21.235V17.5755H19.475V15.8154Z" fill="#323232"/>
<path d="M10.7647 15.7869H12.5247V17.547H10.7647V15.7869Z" fill="#323232"/>
<path d="M28.9366 19.4734C28.6517 18.8756 28.2221 18.3821 27.8321 17.9352C27.5486 17.6105 27.2808 17.3037 27.1012 16.9987C26.9162 16.6846 26.7751 16.2955 26.6257 15.8835C26.3665 15.169 26.0727 14.3592 25.4512 13.7447C25.28 13.5755 25.094 13.432 24.8998 13.3067L29.7272 8.47915C30.7279 7.47855 30.7279 5.85028 29.7272 4.84962C28.7266 3.84896 27.0984 3.84896 26.0977 4.84962L20.2822 10.6652C19.9375 10.4347 19.5583 10.2378 19.1296 10.1241C18.302 9.90462 17.4627 10.0601 16.7222 10.1972C16.2826 10.2786 15.8673 10.3556 15.4878 10.3556C15.1084 10.3556 14.6931 10.2787 14.2535 10.1972C13.5131 10.0601 12.6738 9.90468 11.846 10.1241C10.9855 10.3523 10.3247 10.9157 9.74173 11.4127C9.72386 11.4279 9.70628 11.4429 9.68853 11.458C9.17325 9.56472 7.43993 8.16819 5.38569 8.16819H2.82767V9.04821C2.82767 11.0746 4.18669 12.7884 6.04077 13.3292C5.85919 13.4491 5.68534 13.5857 5.52444 13.7447C4.90288 14.3593 4.60909 15.169 4.34987 15.8836C4.20046 16.2955 4.05931 16.6846 3.87427 16.9987C3.69462 17.3038 3.42685 17.6106 3.14337 17.9354C2.75337 18.3822 2.32382 18.8757 2.03888 19.4734H0.486084V21.6629C0.486084 23.9997 2.38716 25.9008 4.72399 25.9008H26.2849C27.4172 25.9008 28.4766 25.4583 29.2679 24.6548C30.0534 23.8572 30.4861 22.7947 30.4861 21.6629V19.4734H28.9366V19.4734ZM27.3421 6.09409C27.4945 5.94175 27.697 5.8579 27.9124 5.8579C28.1279 5.8579 28.3304 5.94175 28.4827 6.09409C28.635 6.24644 28.7189 6.44894 28.7189 6.66438C28.7189 6.87983 28.635 7.08239 28.4827 7.23474L23.1683 12.5492C22.5806 12.4817 21.8383 11.9105 21.6644 11.7718L27.3421 6.09409ZM4.73489 9.92812H5.38563C6.56618 9.92812 7.57224 10.69 7.93798 11.7477H7.28724C6.10669 11.7477 5.10063 10.9859 4.73489 9.92812ZM4.46946 19.0925C4.79331 18.7215 5.12823 18.3377 5.39091 17.8917C5.65845 17.4375 5.83435 16.9525 6.00444 16.4836C6.21931 15.8914 6.42222 15.332 6.76183 14.9963C7.10132 14.6607 7.66294 14.4642 8.25755 14.2563C8.72847 14.0916 9.21538 13.9212 9.67282 13.659C10.1215 13.4016 10.5089 13.0713 10.8835 12.7519C11.3666 12.34 11.823 11.9509 12.2971 11.8253C12.7423 11.7071 13.3206 11.8142 13.9329 11.9277C14.4313 12.02 14.9467 12.1154 15.4877 12.1154C16.0288 12.1154 16.5442 12.02 17.0426 11.9276C17.6549 11.8142 18.2333 11.7073 18.6784 11.8252C19.1524 11.9509 19.6088 12.34 20.092 12.7519C20.4666 13.0713 20.854 13.4016 21.3027 13.659C21.7601 13.9212 22.2471 14.0916 22.718 14.2563C23.3126 14.4642 23.8743 14.6607 24.2137 14.9963C24.5533 15.332 24.7563 15.8914 24.9711 16.4836C25.1412 16.9526 25.3171 17.4375 25.5846 17.8918C25.8473 18.3377 26.1821 18.7215 26.506 19.0925C26.6182 19.2211 26.7285 19.3477 26.8328 19.4733H4.14269C4.24692 19.3477 4.35726 19.2211 4.46946 19.0925ZM28.7261 21.6629C28.7261 23.0523 27.6538 24.1408 26.2849 24.1408H4.72399C3.35765 24.1408 2.24606 23.0292 2.24606 21.6629V21.2334H28.7262V21.6629H28.7261Z" fill="#323232"/>
</g>
<defs>
<clipPath id="clip0">
<rect width="30" height="30" fill="white" transform="translate(0.486084)"/>
</clipPath>
</defs>
</svg>
