<svg width="31" height="30" viewBox="0 0 31 30" fill="none" xmlns="http://www.w3.org/2000/svg">
<path d="M27.1918 13.1544C26.7904 13.0155 26.3707 12.9365 25.9463 12.9201C25.8619 12.9135 25.7588 12.906 25.6754 12.8957C25.7171 12.8404 25.7658 12.7794 25.8066 12.7279C26.1587 12.3355 26.4123 11.8651 26.5468 11.3554C26.8187 10.168 26.8791 7.93351 25.3815 7.08976C25.053 6.91358 24.692 6.80651 24.3206 6.77515C23.9492 6.74379 23.5753 6.7888 23.2219 6.90741C22.2753 7.19162 21.4746 7.82953 20.986 8.68866C20.4526 9.71991 20.7385 10.7685 20.9687 11.6108C21.1093 12.1321 21.2452 12.6243 21.0769 12.7827C20.8815 12.9702 20.2983 12.8132 19.734 12.659C19.5572 12.6121 19.3758 12.5652 19.194 12.5183C18.8966 11.8612 18.4162 11.3037 17.8103 10.9125C17.2043 10.5213 16.4985 10.3129 15.7772 10.3124C15.7641 10.3124 15.7519 10.3124 15.7388 10.3124C15.6933 9.95588 15.6039 9.60635 15.4726 9.27179C14.5379 6.89851 11.9133 5.69851 10.1916 6.20991C9.69886 6.36366 9.25792 6.65006 8.91709 7.03772C8.53351 6.48829 8.03676 6.02734 7.46022 5.68585C6.80561 5.33892 6.08648 5.13072 5.34778 5.07426C4.60907 5.0178 3.86666 5.1143 3.16693 5.35772C2.77657 5.46437 2.41359 5.65344 2.10245 5.91219C1.79131 6.17093 1.53922 6.49335 1.36318 6.85772C0.92584 7.96491 1.73818 9.22163 3.21475 11.503C3.37225 11.7468 3.53678 11.9854 3.6999 12.2254C3.31083 12.3695 2.93279 12.5418 2.56881 12.741C2.06736 12.9829 1.66269 13.3875 1.42084 13.889C1.27215 14.4016 1.213 14.936 1.246 15.4687C1.25009 19.0727 2.6836 22.5279 5.23204 25.0764C7.78047 27.6248 11.2357 29.0583 14.8397 29.0624H15.7772C19.3813 29.0583 22.8365 27.6248 25.385 25.0764C27.9334 22.5279 29.3669 19.0727 29.371 15.4687C29.3634 15.3961 29.3464 15.3249 29.3204 15.2568C28.9044 14.3105 28.1431 13.5586 27.1918 13.1544ZM19.4907 13.5688C20.3068 13.7901 21.1496 14.0188 21.7266 13.4633C22.2962 12.9177 22.081 12.1293 21.8729 11.3666C21.6647 10.604 21.4533 9.82772 21.8185 9.12179C22.1901 8.48885 22.7874 8.01996 23.4905 7.80929C23.7237 7.72923 23.9707 7.69694 24.2166 7.71433C24.4626 7.73173 24.7025 7.79845 24.9221 7.91054C25.8657 8.4421 25.8643 10.1376 25.6327 11.1477C25.527 11.5176 25.3361 11.8577 25.0754 12.1405C24.8185 12.4616 24.4988 12.8605 24.7327 13.334C24.9587 13.7854 25.4466 13.8219 25.8769 13.8538C26.212 13.8648 26.5436 13.9248 26.8613 14.0319C27.3483 14.2306 27.7668 14.567 28.0655 14.9999H23.371C23.4788 14.4079 23.5974 13.8154 23.7343 13.2323C23.9897 12.1433 24.301 11.0535 24.6591 9.99366L23.7713 9.69366C23.4033 10.7816 23.0837 11.9001 22.8212 13.0176C22.6679 13.6715 22.5357 14.3362 22.4185 14.9999H19.4044C19.5306 14.5338 19.56 14.0467 19.4907 13.5688ZM16.246 12.1874V11.2921C16.769 11.3814 17.2561 11.6165 17.6514 11.9704C18.0466 12.3244 18.3338 12.7827 18.4801 13.2927L17.5041 13.618L17.8004 14.5087L18.5799 14.249C18.5647 14.5052 18.5134 14.758 18.4276 14.9999H13.1269C13.019 14.6992 12.9641 14.3819 12.9647 14.0624C12.9649 13.9685 12.9698 13.8746 12.9793 13.7812L13.7541 14.0394L14.0504 13.1488L13.231 12.8755C13.4237 12.4635 13.7133 12.1042 14.0751 11.8285C14.4369 11.5527 14.8601 11.3687 15.3085 11.2921V12.1874H16.246ZM10.4593 7.11038C11.7371 6.72976 13.8699 7.76335 14.6007 9.61772C14.705 9.88303 14.7757 10.1603 14.8112 10.4432C13.857 10.6935 13.0409 11.3115 12.5412 12.1621C12.0416 13.0126 11.8991 14.0263 12.1449 14.9816L12.106 14.9999H9.94412C10.1447 14.7913 10.3412 14.578 10.5197 14.353C11.6274 12.9287 12.3114 11.2212 12.4932 9.42601L11.5613 9.32382C11.396 10.9433 10.7806 12.4841 9.78475 13.7718C9.7585 13.8051 9.72662 13.8341 9.6999 13.8655C10.3883 11.914 10.2904 9.77112 9.42709 7.89038C9.67726 7.52513 10.0396 7.25132 10.4593 7.11038ZM2.23553 7.20413C2.36565 6.96801 2.54288 6.76114 2.75623 6.59633C2.96959 6.43151 3.21452 6.31228 3.47584 6.24601C4.04861 6.04858 4.65547 5.96935 5.25973 6.0131C5.86399 6.05685 6.4531 6.22267 6.99147 6.50054C9.23397 7.79522 9.74678 11.526 8.69162 13.8712C8.65459 13.9537 8.611 14.0296 8.56881 14.1055C8.47834 13.7235 8.37662 13.3452 8.25287 12.9763C7.48697 10.7312 6.14985 8.72417 4.37303 7.15257L3.74397 7.84726C5.40096 9.31134 6.64854 11.1813 7.36412 13.2735C7.55127 13.8375 7.69651 14.4145 7.79865 14.9999H6.98818C5.90446 13.7332 4.90676 12.3954 4.00178 10.9954C2.67006 8.93616 1.98662 7.83272 2.23553 7.20319V7.20413ZM2.27725 14.2673C2.43252 13.953 2.69408 13.7039 3.01553 13.5641C3.41135 13.3469 3.82601 13.1658 4.25443 13.0232C4.741 13.701 5.24647 14.3599 5.77084 14.9999H2.20834C2.159 14.7542 2.18296 14.4994 2.27725 14.2673ZM15.7772 28.1249H14.8397C11.5653 28.1212 8.41947 26.8502 6.0616 24.5781C3.70373 22.306 2.31694 19.2094 2.19193 15.9374H28.4251C28.3001 19.2094 26.9133 22.306 24.5554 24.5781C22.1975 26.8502 19.0517 28.1212 15.7772 28.1249Z" fill="#323232"/>
<path d="M16.246 13.125H15.3085V14.0625H16.246V13.125Z" fill="#323232"/>
<path d="M16.246 6.5625V7.5C16.246 7.62432 16.2954 7.74355 16.3833 7.83146C16.4712 7.91936 16.5904 7.96875 16.7147 7.96875H18.5897C19.7082 7.96751 20.7806 7.52264 21.5715 6.73174C22.3624 5.94084 22.8072 4.8685 22.8085 3.75V2.8125C22.8085 2.68818 22.7591 2.56895 22.6712 2.48104C22.5833 2.39314 22.464 2.34375 22.3397 2.34375H20.4647C19.3462 2.34499 18.2739 2.78986 17.483 3.58076C16.6921 4.37166 16.2472 5.444 16.246 6.5625ZM20.4647 3.28125H21.871V3.75C21.87 4.61994 21.524 5.45396 20.9088 6.0691C20.2937 6.68424 19.4597 7.03026 18.5897 7.03125H17.9803L20.2997 5.04328L19.6903 4.33172L17.1872 6.47719C17.2095 5.62247 17.5644 4.81018 18.1766 4.21326C18.7887 3.61634 19.6097 3.28194 20.4647 3.28125Z" fill="#323232"/>
</svg>
