<svg width="31" height="30" viewBox="0 0 31 30" fill="none" xmlns="http://www.w3.org/2000/svg">
<g clip-path="url(#clip0)">
<path d="M20.6001 20.2734C20.2767 20.2734 20.0142 20.536 20.0142 20.8594C20.0142 21.1828 20.2767 21.4453 20.6001 21.4453C20.9235 21.4453 21.186 21.1828 21.186 20.8594C21.186 20.536 20.9235 20.2734 20.6001 20.2734Z" fill="#323232"/>
<path d="M30.9126 11.4844C30.9126 8.57666 28.5469 6.21094 25.6392 6.21094H6.18604C3.30373 6.21094 0.912598 8.54141 0.912598 11.4844C0.912598 12.2935 1.46237 12.9765 2.20784 13.1799C2.12704 13.3836 2.08447 13.6024 2.08447 13.8281C2.08447 14.3651 2.32663 14.8462 2.70726 15.1689C2.32114 15.5869 2.08447 16.1451 2.08447 16.7578C2.08447 17.1925 2.20372 17.5996 2.41086 17.9489C1.56422 18.0748 0.912598 18.8065 0.912598 19.6875C0.912598 21.9491 2.75258 23.7891 5.01416 23.7891H26.811C29.0593 23.7891 30.9126 21.9644 30.9126 19.6875C30.9126 18.8065 30.261 18.0748 29.4143 17.9489C29.6215 17.5996 29.7407 17.1925 29.7407 16.7578C29.7407 16.1453 29.5043 15.5873 29.1184 15.1694C29.5201 14.8281 29.7407 14.3436 29.7407 13.8281C29.7407 13.5995 29.6963 13.3811 29.6167 13.1806C30.3573 12.9801 30.9126 12.3017 30.9126 11.4844ZM25.3672 8.0397C25.5961 8.26859 25.5961 8.6396 25.3672 8.86871C25.1384 9.0976 24.7673 9.0976 24.5382 8.86871L23.0528 7.38281H24.7099L25.3672 8.0397ZM16.8126 8.0397C17.0414 8.26859 17.0414 8.6396 16.8126 8.86871C16.5837 9.0976 16.2127 9.0976 15.9836 8.86871L14.4981 7.38281H16.1552L16.8126 8.0397ZM7.60052 7.38281L8.25787 8.0397C8.48676 8.26859 8.48676 8.6396 8.25787 8.86871C8.02876 9.0976 7.65797 9.0976 7.42886 8.86871L5.95074 7.39014C6.02902 7.38579 6.1073 7.38281 6.18604 7.38281H7.60052ZM27.9829 13.2422C28.3061 13.2422 28.5688 13.5049 28.5688 13.8281C28.5688 14.1515 28.3063 14.4141 27.9829 14.4141H3.84229C3.5191 14.4141 3.25635 14.1513 3.25635 13.8281C3.25635 13.5047 3.51888 13.2422 3.84229 13.2422H27.9829ZM27.397 17.9297H20.8429L23.1867 15.5859H27.397C28.0431 15.5859 28.5688 16.1117 28.5688 16.7578C28.5688 17.4039 28.0431 17.9297 27.397 17.9297ZM12.397 20.0306L7.95232 15.5859H16.8419L12.397 20.0306ZM4.42822 17.9297C3.78209 17.9297 3.25635 17.4039 3.25635 16.7578C3.25635 16.1117 3.78209 15.5859 4.42822 15.5859H6.29475L8.6385 17.9297H4.42822ZM18.4992 15.5859H21.5294L17.0845 20.0306L15.5695 18.5156L18.4992 15.5859ZM29.7407 19.6875C29.7407 19.8859 29.7206 20.0816 29.6819 20.2734H22.9438C22.6202 20.2734 22.3579 20.5357 22.3579 20.8594C22.3579 21.183 22.6202 21.4446 22.9438 21.4446H29.155C28.6112 22.1681 27.7483 22.6172 26.811 22.6172H5.01416C3.39871 22.6172 2.08447 21.3029 2.08447 19.6875C2.08447 19.3643 2.34723 19.1016 2.67041 19.1016H9.81038L11.9827 21.2737C12.2116 21.5025 12.5824 21.5025 12.8112 21.2737L14.7407 19.3444L16.6702 21.2737C16.8991 21.5025 17.2699 21.5025 17.4987 21.2737L19.6711 19.1016H29.1548C29.478 19.1016 29.7407 19.3643 29.7407 19.6875ZM29.1548 12.0703H2.67041C2.34723 12.0703 2.08447 11.8076 2.08447 11.4844C2.08447 9.78928 3.11147 8.32535 4.60332 7.70004L6.60031 9.69727C7.28696 10.3841 8.39955 10.3844 9.08643 9.69727C9.72295 9.06075 9.76552 8.06763 9.23703 7.38281H12.841L15.1548 9.69727C15.8416 10.3841 16.9542 10.3844 17.6411 9.69727C18.2776 9.06075 18.3202 8.06763 17.7915 7.38281H21.3955L23.7095 9.69727C24.3963 10.3841 25.5087 10.3844 26.1958 9.69727C26.8099 9.08318 26.8715 8.13538 26.3988 7.45445C28.2985 7.81197 29.7407 9.48235 29.7407 11.4844C29.7407 11.8078 29.4782 12.0703 29.1548 12.0703Z" fill="#323232"/>
</g>
<defs>
<clipPath id="clip0">
<rect width="30" height="30" fill="white" transform="translate(0.912598)"/>
</clipPath>
</defs>
</svg>
