<svg width="31" height="30" viewBox="0 0 31 30" fill="none" xmlns="http://www.w3.org/2000/svg">
<g clip-path="url(#clip0)">
<path d="M30.2678 9.8481C30.2378 7.57896 28.3711 5.74219 26.0806 5.74219C24.0344 5.74219 22.3274 7.20863 21.9651 9.13948C21.2457 9.4558 19.9963 9.96162 19.2517 10.0848C18.354 10.2331 17.2691 10.2777 16.0272 10.2171C13.6551 10.1012 11.2869 9.33357 9.17841 7.99644C6.52521 6.31416 4.26546 5.92049 1.85121 6.71997C0.914856 7.03011 0.285889 7.90558 0.285889 8.89893C0.285889 9.22073 0.461899 9.51691 0.744797 9.67094C1.06821 9.84673 1.37056 9.9987 1.66307 10.1454C3.24762 10.9408 4.12057 11.3789 4.69896 13.7931C5.13109 15.5958 5.88708 17.1069 6.94635 18.284C7.60828 19.0199 8.39105 19.6275 9.28117 20.0999C8.73689 20.5364 8.38762 21.205 8.38762 21.9532V23.4359C8.38762 23.9214 8.78107 24.3148 9.2663 24.3148H19.7335C20.2188 24.3148 20.6124 23.9214 20.6124 23.4359V21.9532C20.6124 21.2084 20.2664 20.5426 19.7262 20.1059C21.994 18.7836 23.3753 16.5347 23.7216 13.597C23.9051 12.0399 23.7509 10.6821 23.6433 10.0134C23.6479 9.97742 23.6508 9.9408 23.6508 9.90372C23.6508 8.57826 24.7408 7.5 26.0806 7.5C27.4203 7.5 28.5105 8.57826 28.5105 9.90372C28.5105 9.9456 28.5134 9.98749 28.5194 10.0289C28.5205 10.0376 28.6176 10.909 28.0756 11.5347C27.6313 12.0474 26.8465 12.3074 25.743 12.3074C25.2576 12.3074 24.8641 12.7009 24.8641 13.1863C24.8641 13.6716 25.2576 14.065 25.743 14.065C27.3793 14.065 28.6112 13.6008 29.404 12.6855C30.3765 11.5631 30.3051 10.1985 30.2678 9.8481ZM18.8027 18.6102C18.0638 19.034 17.2261 19.3096 16.3124 19.4291C13.2507 19.8292 7.89232 19.5758 6.40848 13.3834C5.63943 10.1745 4.16223 9.43291 2.45157 8.57437C2.38428 8.54073 2.31653 8.50662 2.24809 8.47206C2.29387 8.43613 2.34628 8.40752 2.40373 8.38852C4.29659 7.76184 6.04112 8.08846 8.23701 9.48097C10.6021 10.9806 13.266 11.8421 15.9414 11.9728C17.3078 12.0394 18.5179 11.9877 19.5387 11.8188C20.2719 11.6977 21.2547 11.3372 21.999 11.0337C22.0562 11.6638 22.0835 12.5169 21.9699 13.4402C21.676 15.8331 20.6104 17.5726 18.8027 18.6102ZM10.7797 21.3309H18.2204C18.5701 21.3309 18.8546 21.6101 18.8546 21.9532V22.5572H10.1452V21.9532C10.1452 21.6101 10.4299 21.3309 10.7797 21.3309Z" fill="#323232"/>
</g>
<defs>
<clipPath id="clip0">
<rect width="30" height="30" fill="white" transform="translate(0.285889)"/>
</clipPath>
</defs>
</svg>
