<svg width="31" height="30" viewBox="0 0 31 30" fill="none" xmlns="http://www.w3.org/2000/svg">
<g clip-path="url(#clip0)">
<path d="M19.1295 12.5188C18.0838 11.9367 16.8814 11.8219 15.7754 12.1734C15.4183 11.9381 15.0156 11.7664 14.5825 11.6722C13.4126 11.4177 12.2094 11.7681 11.3606 12.6093C6.4088 13.6552 2.72741 17.8525 2.33706 22.91H0.486084V24.6678H2.63817L4.39599 28.1835H26.5761L28.3339 24.6678H30.4861V22.91H28.6352C28.2262 17.6039 24.2332 13.3676 19.1295 12.5188ZM26.871 22.91H25.104C24.8396 20.5516 23.5227 18.42 21.5127 17.1294C21.4418 16.5124 21.3411 15.9088 21.2088 15.3118C21.1798 15.1809 21.1435 15.0529 21.1031 14.9268C24.2774 16.3225 26.5448 19.3845 26.871 22.91ZM21.6377 19.4843C22.5458 20.4131 23.1444 21.6123 23.3323 22.91H21.317C21.5249 21.7829 21.6324 20.6352 21.6377 19.4843ZM19.4926 15.6919C19.7537 16.8707 19.8806 18.0817 19.8806 19.3944C19.8806 20.5773 19.7613 21.7567 19.5264 22.91H17.729C17.9906 21.7612 18.1228 20.5832 18.1228 19.3944C18.1228 17.4984 17.7892 15.6428 17.1311 13.879C17.1133 13.8315 17.0943 13.7847 17.0747 13.7382C18.2365 13.7481 19.2388 14.5458 19.4926 15.6919ZM14.209 13.3899C14.8062 13.5198 15.271 13.922 15.4842 14.4934C16.0686 16.06 16.365 17.7089 16.365 19.3944C16.365 20.5868 16.215 21.7664 15.9196 22.91H14.0971C14.4355 21.7751 14.6072 20.5975 14.6072 19.3944C14.6072 17.3456 14.0975 15.3219 13.1269 13.494C13.4594 13.3464 13.8327 13.3081 14.209 13.3899ZM12.8494 19.3944C12.8494 19.4244 12.8485 19.4542 12.8483 19.4842C11.1325 19.8365 9.77431 21.1961 9.42269 22.91H7.63804C8.01409 20.2605 10.0665 18.1539 12.7149 17.7191C12.803 18.2725 12.8494 18.8323 12.8494 19.3944ZM12.663 21.3787C12.5641 21.8986 12.4261 22.4097 12.249 22.91H11.2435C11.4869 22.2274 12.0047 21.6719 12.663 21.3787ZM11.5947 14.357C11.8752 14.8903 12.1092 15.4428 12.2972 16.0082C8.89013 16.6292 6.25101 19.4316 5.86692 22.91H4.0995C4.47222 18.7284 7.48089 15.2765 11.5947 14.357ZM25.4897 26.4257H5.48243L4.60353 24.6678H26.3687L25.4897 26.4257Z" fill="#323232"/>
<path d="M16.365 3.57422H14.6072C12.6687 3.57422 11.0916 5.15133 11.0916 7.08984H12.8494C12.8494 6.12059 13.6379 5.33203 14.6072 5.33203H16.365C18.3035 5.33203 19.8806 3.75492 19.8806 1.81641H18.1228C18.1228 2.78566 17.3342 3.57422 16.365 3.57422Z" fill="#323232"/>
<path d="M18.1228 7.08984H16.365C14.4265 7.08984 12.8494 8.66695 12.8494 10.6055H14.6072C14.6072 9.63621 15.3957 8.84766 16.365 8.84766H18.1228C20.0613 8.84766 21.6384 7.27055 21.6384 5.33203H19.8806C19.8806 6.30129 19.0921 7.08984 18.1228 7.08984Z" fill="#323232"/>
</g>
<defs>
<clipPath id="clip0">
<rect width="30" height="30" fill="white" transform="translate(0.486084)"/>
</clipPath>
</defs>
</svg>
